# Made in Blockbench 4.10.4
mtllib sandPile.mtl

o plane
v 0.5965909090909087 0.0625 0.3579545454545452
v -1.0738636363636362 0 1.0738636363636362
v -1.0738636363636362 0 0.8352272727272725
v -1.0738636363636362 0 0.5965909090909087
v -1.0738636363636362 0 0.3579545454545452
v -1.0738636363636362 0 0.11931818181818166
v -1.0738636363636362 0 -0.11931818181818188
v -1.0738636363636362 0 -0.3579545454545454
v -1.0738636363636362 0 -0.5965909090909091
v -0.8352272727272727 0 1.0738636363636362
v -0.8352272727272727 0.0625 0.8352272727272725
v -0.8352272727272727 0.0625 0.5965909090909087
v -0.8352272727272727 0.0625 0.3579545454545452
v -0.8352272727272727 0.0625 0.11931818181818166
v -0.8352272727272727 0.0625 -0.11931818181818188
v -0.8352272727272727 0.0625 -0.3579545454545454
v -0.8352272727272727 0 -0.5965909090909091
v -0.5965909090909091 0 1.0738636363636362
v -0.5965909090909091 0.0625 0.8352272727272725
v -0.5965909090909091 0.0625 0.5965909090909087
v -0.5965909090909091 0.0625 0.3579545454545452
v -0.5965909090909091 0.0625 0.11931818181818166
v -0.5965909090909091 0.0625 -0.11931818181818188
v -0.5965909090909091 0.0625 -0.3579545454545454
v -0.5965909090909091 0 -0.5965909090909091
v -0.3579545454545454 0 1.0738636363636362
v -0.3579545454545454 0.0625 0.8352272727272725
v -0.3579545454545454 0.0625 0.5965909090909087
v -0.3579545454545454 0.125 0.3579545454545452
v -0.3579545454545454 0.125 0.11931818181818166
v -0.3579545454545454 0.125 -0.11931818181818188
v -0.3579545454545454 0 -0.3579545454545454
v -0.3579545454545454 0 -0.5965909090909091
v -0.11931818181818188 0 1.0738636363636362
v -0.11931818181818188 0 0.8352272727272725
v -0.11931818181818188 0.0625 0.5965909090909087
v -0.11931818181818188 0.15625 0.3579545454545452
v -0.11931818181818188 0.15625 0.11931818181818166
v -0.11931818181818188 0.125 -0.11931818181818188
v -0.11931818181818188 0 -0.3579545454545454
v -0.11931818181818188 0 -0.5965909090909091
v -0.11931818181818188 0 -0.8352272727272727
v -0.11931818181818188 0 -1.0738636363636362
v 0.11931818181818166 0 0.8352272727272725
v 0.11931818181818166 0.0625 0.5965909090909087
v 0.11931818181818166 0.15625 0.3579545454545452
v 0.11931818181818166 0.15625 0.11931818181818166
v 0.11931818181818166 0.125 -0.11931818181818188
v 0.11931818181818166 0.0625 -0.3579545454545454
v 0.11931818181818166 0.0625 -0.5965909090909091
v 0.11931818181818166 0.0625 -0.8352272727272727
v 0.11931818181818166 0 -1.0738636363636362
v 0.3579545454545452 0 0.8352272727272725
v 0.3579545454545452 0.0625 0.5965909090909087
v 0.3579545454545452 0.125 0.3579545454545452
v 0.3579545454545452 0.125 0.11931818181818166
v 0.3579545454545452 0.125 -0.11931818181818188
v 0.3579545454545452 0.0625 -0.3579545454545454
v 0.3579545454545452 0.0625 -0.5965909090909091
v 0.3579545454545452 0.0625 -0.8352272727272727
v 0.3579545454545452 0 -1.0738636363636362
v 0.5965909090909087 0 0.8352272727272725
v 0.5965909090909087 0 0.5965909090909087
v 0.5965909090909087 0.0625 0.11931818181818166
v 0.5965909090909087 0.0625 -0.11931818181818188
v 0.5965909090909087 0.0625 -0.3579545454545454
v 0.5965909090909087 0.0625 -0.5965909090909091
v 0.5965909090909087 0.0625 -0.8352272727272727
v 0.5965909090909087 0 -1.0738636363636362
v 0.8352272727272725 0 0.5965909090909087
v 0.8352272727272725 0.0625 0.3579545454545452
v 0.8352272727272725 0.0625 0.11931818181818166
v 0.8352272727272725 0 -0.11931818181818188
v 0.8352272727272725 0.0625 -0.3579545454545454
v 0.8352272727272725 0.0625 -0.5965909090909091
v 0.8352272727272725 0.0625 -0.8352272727272727
v 0.8352272727272725 0 -1.0738636363636362
v 1.0738636363636362 0 0.5965909090909087
v 1.0738636363636362 0.0625 0.3579545454545452
v 1.0738636363636362 0.0625 0.11931818181818166
v 1.0738636363636362 0 -0.11931818181818188
v 1.0738636363636362 0 -0.3579545454545454
v 1.0738636363636362 0 -0.5965909090909091
v 1.0738636363636362 0 -0.8352272727272727
v 1.0738636363636362 0 -1.0738636363636362
v 1.3125 0 0.5965909090909087
v 1.3125 0 0.3579545454545452
v 1.3125 0 0.11931818181818166
v 1.3125 0 -0.11931818181818188
vt 0.06194076310771668 0.4544048314442357
vt 0.06589851995348736 0.5159493198754312
vt 0.004226906584711199 0.5159493198754312
vt 0.004227518721523937 0.4581168249200014
vt 0.06589851995348736 0.5159493198754312
vt 0.06589851995348733 0.5756071323754313
vt 0.004228207453487287 0.5756071323754313
vt 0.004228207453487343 0.5159493198754312
vt 0.06589851995348733 0.5756071323754313
vt 0.06589851995348728 0.6352665073754313
vt 0.004228207453487287 0.6352665073754312
vt 0.004228207453487287 0.5756071323754313
vt 0.06589851995348728 0.6352665073754313
vt 0.06589851995348722 0.6949258823754313
vt 0.004228207453487176 0.6949258823754312
vt 0.004228207453487287 0.6352665073754312
vt 0.06589851995348722 0.6949258823754313
vt 0.06589851995348714 0.7545852573754313
vt 0.004228207453487121 0.7545852573754313
vt 0.004228207453487176 0.6949258823754312
vt 0.06589851995348714 0.7545852573754313
vt 0.06589851995348706 0.8142446323754313
vt 0.004228207453487065 0.8142446323754312
vt 0.004228207453487121 0.7545852573754313
vt 0.06589851995348708 0.8142446323754313
vt 0.06181456666203655 0.8757811377322426
vt 0.0022861438717205473 0.8718304535525071
vt 0.006107904671645015 0.8142446323754312
vt 0.12555633245348735 0.45427900737543125
vt 0.12555633245348735 0.5159493198754312
vt 0.06589851995348736 0.5159493198754312
vt 0.06589851995348736 0.45427900737543125
vt 0.12555633245348735 0.5159493198754312
vt 0.12555633245348735 0.5756071323754313
vt 0.06589851995348736 0.5756071323754313
vt 0.06589851995348736 0.5159493198754312
vt 0.12555633245348735 0.5756071323754313
vt 0.12555633245348735 0.6352665073754313
vt 0.06589851995348736 0.6352665073754313
vt 0.06589851995348736 0.5756071323754313
vt 0.12555633245348735 0.6352665073754313
vt 0.12555633245348735 0.6949258823754313
vt 0.06589851995348736 0.6949258823754313
vt 0.06589851995348736 0.6352665073754313
vt 0.12555633245348735 0.6949258823754313
vt 0.12555633245348735 0.7545852573754313
vt 0.06589851995348736 0.7545852573754313
vt 0.06589851995348736 0.6949258823754313
vt 0.12555633245348735 0.7545852573754313
vt 0.12555633245348735 0.8142446323754313
vt 0.06589851995348736 0.8142446323754313
vt 0.06589851995348736 0.7545852573754313
vt 0.12555633245348735 0.8142446323754313
vt 0.12555633245348735 0.8759165073754313
vt 0.06589851995348736 0.8759165073754313
vt 0.06589851995348736 0.8142446323754313
vt 0.18521570745348737 0.45427900737543125
vt 0.18521570745348737 0.5159493198754312
vt 0.12555633245348735 0.5159493198754312
vt 0.12555633245348735 0.45427900737543125
vt 0.18521570745348737 0.5159493198754312
vt 0.18521570745348737 0.5756071323754313
vt 0.12555633245348735 0.5756071323754313
vt 0.12555633245348735 0.5159493198754312
vt 0.0625 0.9375
vt 0.0625 1
vt 0 0.9960422431542293
vt 0.003711993475765729 0.9375
vt 0.18722664495348737 0.6352665073754313
vt 0.18722664495348737 0.6949258823754313
vt 0.12555633245348735 0.6949258823754313
vt 0.12555633245348735 0.6352665073754313
vt 0.18722664495348737 0.6949258823754313
vt 0.18722664495348734 0.7545852573754313
vt 0.12555633245348732 0.7545852573754313
vt 0.12555633245348735 0.6949258823754312
vt 0.32733282916276557 0.36455608950403606
vt 0.32733282916276557 0.29720861641597096
vt 0.3885765458372344 0.30445885229756775
vt 0.38232047403346436 0.3573061615375508
vt 0.18521570745348737 0.8142446323754313
vt 0.18521570745348737 0.8739040073754313
vt 0.12555633245348735 0.8739040073754313
vt 0.12555633245348735 0.8142446323754313
vt 0.2428015286305632 0.4504572465755068
vt 0.24675221281029874 0.5099856693658228
vt 0.18521570745348737 0.5140696226572733
vt 0.18521570745348737 0.45427900737543125
vt 0.24487508245348735 0.5119915073754313
vt 0.24487508245348735 0.5736633823754312
vt 0.18521570745348737 0.5736633823754312
vt 0.18521570745348737 0.5159493198754312
vt 0.24487508245348735 0.5736633823754312
vt 0.24487502069680372 0.6377619223902198
vt 0.18477488471770537 0.6349037625526379
vt 0.18565515112869369 0.5736633823754312
vt 0.2686873702049068 0.484375
vt 0.2676734541627656 0.424724241415971
vt 0.3278335141793648 0.4237016685033217
vt 0.328847430221506 0.4833524270873507
vt 0.2676734541627656 0.424724241415971
vt 0.2676734541627656 0.36455705391597093
vt 0.32733282916276557 0.36455705391597093
vt 0.32733282916276557 0.42371017891597096
vt 0.2676734541627656 0.36455705391597093
vt 0.2676734541627656 0.29720861641597096
vt 0.32733282916276557 0.29720861641597096
vt 0.32733282916276557 0.36455705391597093
vt 0.30453445745348734 0.5119915073754313
vt 0.30453445745348734 0.5736633823754312
vt 0.24487508245348735 0.5736633823754312
vt 0.24487508245348735 0.5119915073754313
vt 0.30453445745348734 0.5736633823754312
vt 0.30453445745348734 0.6377618198754313
vt 0.24487508245348735 0.6377618198754313
vt 0.24487508245348735 0.5736633823754312
vt 0.30453445745348734 0.6377618198754313
vt 0.30453445745348734 0.6974211948754312
vt 0.24487508245348735 0.6974211948754312
vt 0.24487508245348735 0.6377618198754313
vt 0.30453445745348734 0.6974211948754312
vt 0.3045344574534874 0.7575883823754312
vt 0.24487508245348738 0.7575883823754312
vt 0.24487508245348738 0.6974211948754313
vt 0.30453445745348734 0.7575883823754312
vt 0.3045339704597562 0.8192589269381102
vt 0.242989594887118 0.8232195437795471
vt 0.24670196249481788 0.7575883823754312
vt 0.3045339704597562 0.8192589269381102
vt 0.308365354795541 0.8787951471696812
vt 0.2468207889650421 0.882755776254942
vt 0.24298940462925733 0.8232195560233709
vt 0.308365354795541 0.8787951471696812
vt 0.3121966387860234 0.938329808126719
vt 0.2506520729555245 0.9422904372119796
vt 0.24682078896504211 0.882755776254942
vt 0.3121966387860234 0.938329808126719
vt 0.3120746627213297 1
vt 0.25241540441466837 0.9998820013149019
vt 0.2525295524276792 0.9421696142001661
vt 0.36419383245348735 0.5119915073754313
vt 0.36419383245348735 0.5736633823754312
vt 0.30453445745348734 0.5736633823754312
vt 0.30453445745348734 0.5119915073754313
vt 0.36419383245348735 0.5736633823754312
vt 0.3641943817755262 0.6353331944782413
vt 0.3040579242440795 0.6373138519167754
vt 0.3050077726686735 0.5736633823754312
vt 0.3641943817755262 0.6353331944782413
vt 0.3661582610962376 0.6949602370294555
vt 0.3060221196012358 0.696940884058997
vt 0.30405824028052447 0.6373138415077828
vt 0.3661582610962376 0.6949602370294555
vt 0.36812214041694896 0.7545872795806697
vt 0.3084950978657348 0.7565511589013811
vt 0.3065312185450234 0.6969241163501669
vt 0.36812214041694896 0.7545872795806697
vt 0.3701522161832566 0.8162241698026034
vt 0.3105251736320424 0.8181880491233149
vt 0.3084950978657348 0.7565511589013811
vt 0.3701522161832566 0.8162241698026034
vt 0.372116095503968 0.8758512123538176
vt 0.3124890529527538 0.8778150916745291
vt 0.3105251736320424 0.8181880491233149
vt 0.372116095503968 0.8758512123538176
vt 0.37407992338998974 0.93547669325183
vt 0.31445288083877554 0.9374405725725414
vt 0.3124890529527538 0.8778150916745291
vt 0.37407992338998974 0.93547669325183
vt 0.3761099991562974 0.9971135834737637
vt 0.3164829566050832 0.9990774627944752
vt 0.31445288083877554 0.9374405725725414
vt 0.4217796470166102 0.5081696469185822
vt 0.4257303307425944 0.5676965038016933
vt 0.36419383245348735 0.5717805635870473
vt 0.36419383245348735 0.5119915073754313
vt 0.4257303307425944 0.5676965038016933
vt 0.42585688555941414 0.6293679873203031
vt 0.3643206483272209 0.6334520297798086
vt 0.36419409351040116 0.5717805462611989
vt 0.42585688555941414 0.6293679873203031
vt 0.42980767275790377 0.6888964032735507
vt 0.3682727335389332 0.6929803595863995
vt 0.36432194634044357 0.6334519436331517
vt 0.42980767275790377 0.6888964032735507
vt 0.4337584599563934 0.7484248192267985
vt 0.3722235207374228 0.7525087755396471
vt 0.3682727335389332 0.6929803595863995
vt 0.4337584599563934 0.7484248192267985
vt 0.43770924715488296 0.8079532351800462
vt 0.37818083120163526 0.8119040223785358
vt 0.37423004400314563 0.7523756064252881
vt 0.43770924715488296 0.8079532351800462
vt 0.44166003435337253 0.8674816511332939
vt 0.38213161840012483 0.8714324383317835
vt 0.37818083120163526 0.8119040223785358
vt 0.44166003435337253 0.8674816511332939
vt 0.4456107180793568 0.927008508016405
vt 0.3860823021261091 0.9309592952148946
vt 0.38213161840012483 0.8714324383317835
vt 0.4456107180793568 0.9270085080164051
vt 0.4496946743922054 0.9885434472353756
vt 0.3901662584389577 0.9924942344338652
vt 0.3860823021261091 0.9309592952148946
vt 0.4853880176325048 0.5675740814566241
vt 0.4855145729862116 0.6292458266059069
vt 0.42585688609630123 0.6293682489509761
vt 0.4257303307425944 0.5676965038016933
vt 0.5453601484349593 0.1849484758369333
vt 0.5453601484349593 0.24460785083693326
vt 0.4857023359349593 0.24460785083693326
vt 0.4857023359349593 0.1849484758369333
vt 0.5453601484349593 0.24460785083693326
vt 0.5453617751848099 0.30627839538007984
vt 0.4838172555022442 0.3023211245338916
vt 0.48752879323268816 0.24460785083693326
vt 0.5453617751848099 0.30627839538007984
vt 0.5373375309423035 0.3674260173318141
vt 0.4781868505840778 0.3596638265686235
vt 0.48569593306041975 0.3024419222258502
vt 0.5373375309423035 0.3674260173318141
vt 0.529575136879284 0.42657824690772306
vt 0.4704244565210583 0.4188160561445323
vt 0.4781868505840778 0.3596638265686234
vt 0.529575136879284 0.42657824690772306
vt 0.5218129461160934 0.48572892726594874
vt 0.4626622657578676 0.477966736502758
vt 0.4704244565210583 0.4188160561445323
vt 0.5218129461160934 0.48572892726594874
vt 0.5137889051734158 0.546875
vt 0.45463822481519006 0.5391128092368094
vt 0.4626622657578676 0.477966736502758
vt 0.5450472670191253 0.5674516559051868
vt 0.5451738223728322 0.6291234010544695
vt 0.4855145729862116 0.6292458266059069
vt 0.4853880176325048 0.5675740814566241
vt 0.5451738223728322 0.6291234010544695
vt 0.5452962479242696 0.68878265044109
vt 0.485636998537649 0.6889050759925274
vt 0.48551457298621165 0.6292458266059069
vt 0.5452962479242696 0.68878265044109
vt 0.5454228032779763 0.7504543955903726
vt 0.4857635538913558 0.75057682114181
vt 0.48563699853764897 0.6889050759925274
vt 0.5454228032779763 0.7504543955903726
vt 0.5455452288294137 0.8101136449769932
vt 0.48387504617684113 0.8102401971243318
vt 0.487710424792192 0.7505728260070059
vt 0.5455452288294137 0.8101136449769932
vt 0.5456676543808511 0.8697728943636137
vt 0.4839974717282785 0.8698994465109523
vt 0.48387504617684113 0.8102401971243318
vt 0.5456676543808511 0.8697728943636137
vt 0.5457900767259203 0.9294305812535241
vt 0.48411989407334766 0.9295571334008627
vt 0.4839974717282785 0.8698994465109523
vt 0.5457900767259203 0.9294305812535241
vt 0.5459125022773577 0.9890898306401446
vt 0.4862532528907371 0.9892122561915819
vt 0.48613082733929974 0.9295530068049614
vt 0.6026252271224655 0.5635132340653917
vt 0.6066965077886733 0.6230335305963028
vt 0.5451699616732648 0.6272420418480592
vt 0.5450472670191253 0.5674516559051868
vt 0.6068440050254047 0.6289968489071309
vt 0.6069664305768421 0.6886560982937515
vt 0.5452962479242696 0.6887826504410901
vt 0.5451738223728322 0.6291234010544695
vt 0.6069664305768421 0.6886560982937515
vt 0.6070888561282795 0.7483153476803719
vt 0.5474296067416589 0.7484377732318093
vt 0.5473071811902215 0.6887785238451889
vn -0.2455993543790087 0.9377429894471239 0.24559935437900848
vn -0.2533593918376834 0.9673722233802453 0
vn -0.2533593918376834 0.9673722233802453 0
vn -0.2533593918376834 0.9673722233802453 0
vn -0.2533593918376834 0.9673722233802453 0
vn -0.2533593918376834 0.9673722233802453 0
vn 0 0.9673722233802453 -0.2533593918376833
vn 0 0.9673722233802455 0.25335939183768325
vn 0 1 0
vn 0 1 0
vn 0 1 0
vn 0 1 0
vn 0 1 0
vn 0 0.9673722233802453 -0.2533593918376833
vn 0 0.9673722233802455 0.25335939183768325
vn 0 1 0
vn -0.24559935437900857 0.9377429894471238 0.24559935437900868
vn -0.2533593918376833 0.9673722233802453 0
vn -0.2533593918376833 0.9673722233802453 0
vn 0.22600089279867883 0.8629124997767738 -0.4520017855973579
vn 0 1 0
vn 0.2533593918376834 0.9673722233802453 0
vn 0 0.9673722233802455 0.2533593918376832
vn -0.12098874856955026 0.9239140799856562 0.36296624570865077
vn -0.1298437985064724 0.9915344613221524 0
vn 0 0.9915344613221524 -0.1298437985064724
vn 0 0.8858315352801555 -0.4640069946705578
vn 0 0.9673722233802455 0.2533593918376832
vn 0 0.930751493440347 0.36565237242299364
vn 0 1 0
vn 0 0.9915344613221524 -0.1298437985064724
vn -0.2455993543790087 0.9377429894471238 -0.2455993543790087
vn -0.2533593918376834 0.9673722233802453 0
vn -0.2533593918376834 0.9673722233802453 0
vn 0 0.9673722233802453 -0.2533593918376834
vn 0 0.9673722233802455 0.2533593918376832
vn 0.12567530676594355 0.9597023425762958 0.2513506135318871
vn 0.1298437985064724 0.9915344613221524 0
vn 0 1 0
vn 0 0.9673722233802453 -0.2533593918376834
vn 0 1 0
vn 0 1 0
vn 0 0.9673722233802453 -0.2533593918376834
vn 0.2533593918376834 0.9673722233802453 0
vn 0.2455993543790087 0.9377429894471238 0.2455993543790087
vn 0.2533593918376834 0.9673722233802453 0
vn 0.2533593918376834 0.9673722233802453 0
vn 0 1 0
vn 0 1 0
vn 0 1 0
vn 0 0.9673722233802453 -0.2533593918376834
vn 0 0.9673722233802453 0.2533593918376834
vn 0 1 0
vn 0.24559935437900848 0.9377429894471239 -0.2455993543790087
vn 0 0.9673722233802453 0.2533593918376834
vn 0 1 0
vn 0 1 0
vn 0 0.9673722233802453 -0.2533593918376834
vn 0 0.9673722233802453 0.2533593918376834
vn 0 1 0
vn 0 0.9673722233802453 -0.2533593918376834
vn 0.2533593918376832 0.9673722233802455 0
vn 0.25335939183768325 0.9673722233802455 0
vn 0.25335939183768325 0.9673722233802455 0
vn 0 1 0
vn 0.2533593918376832 0.9673722233802455 0
vn 0.2533593918376832 0.9673722233802455 0
vn 0 1 0
usemtl m_54e72112-9b4b-5045-3c02-c51e4fa417df
f 10/1/1 11/2/1 3/3/1 2/4/1
f 11/5/2 12/6/2 4/7/2 3/8/2
f 12/9/3 13/10/3 5/11/3 4/12/3
f 13/13/4 14/14/4 6/15/4 5/16/4
f 14/17/5 15/18/5 7/19/5 6/20/5
f 15/21/6 16/22/6 8/23/6 7/24/6
f 16/25/7 17/26/7 9/27/7 8/28/7
f 18/29/8 19/30/8 11/31/8 10/32/8
f 19/33/9 20/34/9 12/35/9 11/36/9
f 20/37/10 21/38/10 13/39/10 12/40/10
f 21/41/11 22/42/11 14/43/11 13/44/11
f 22/45/12 23/46/12 15/47/12 14/48/12
f 23/49/13 24/50/13 16/51/13 15/52/13
f 24/53/14 25/54/14 17/55/14 16/56/14
f 26/57/15 27/58/15 19/59/15 18/60/15
f 27/61/16 28/62/16 20/63/16 19/64/16
f 28/65/17 29/66/17 21/67/17 20/68/17
f 29/69/18 30/70/18 22/71/18 21/72/18
f 30/73/19 31/74/19 23/75/19 22/76/19
f 31/77/20 32/78/20 24/79/20 23/80/20
f 32/81/21 33/82/21 25/83/21 24/84/21
f 34/85/22 35/86/22 27/87/22 26/88/22
f 35/89/23 36/90/23 28/91/23 27/92/23
f 36/93/24 37/94/24 29/95/24 28/96/24
f 37/97/25 38/98/25 30/99/25 29/100/25
f 38/101/26 39/102/26 31/103/26 30/104/26
f 39/105/27 40/106/27 32/107/27 31/108/27
f 44/109/28 45/110/28 36/111/28 35/112/28
f 45/113/29 46/114/29 37/115/29 36/116/29
f 46/117/30 47/118/30 38/119/30 37/120/30
f 47/121/31 48/122/31 39/123/31 38/124/31
f 48/125/32 49/126/32 40/127/32 39/128/32
f 49/129/33 50/130/33 41/131/33 40/132/33
f 50/133/34 51/134/34 42/135/34 41/136/34
f 51/137/35 52/138/35 43/139/35 42/140/35
f 53/141/36 54/142/36 45/143/36 44/144/36
f 54/145/37 55/146/37 46/147/37 45/148/37
f 55/149/38 56/150/38 47/151/38 46/152/38
f 56/153/39 57/154/39 48/155/39 47/156/39
f 57/157/40 58/158/40 49/159/40 48/160/40
f 58/161/41 59/162/41 50/163/41 49/164/41
f 59/165/42 60/166/42 51/167/42 50/168/42
f 60/169/43 61/170/43 52/171/43 51/172/43
f 62/173/44 63/174/44 54/175/44 53/176/44
f 63/177/45 1/178/45 55/179/45 54/180/45
f 1/181/46 64/182/46 56/183/46 55/184/46
f 64/185/47 65/186/47 57/187/47 56/188/47
f 65/189/48 66/190/48 58/191/48 57/192/48
f 66/193/49 67/194/49 59/195/49 58/196/49
f 67/197/50 68/198/50 60/199/50 59/200/50
f 68/201/51 69/202/51 61/203/51 60/204/51
f 70/205/52 71/206/52 1/207/52 63/208/52
f 71/209/53 72/210/53 64/211/53 1/212/53
f 72/213/54 73/214/54 65/215/54 64/216/54
f 73/217/55 74/218/55 66/219/55 65/220/55
f 74/221/56 75/222/56 67/223/56 66/224/56
f 75/225/57 76/226/57 68/227/57 67/228/57
f 76/229/58 77/230/58 69/231/58 68/232/58
f 78/233/59 79/234/59 71/235/59 70/236/59
f 79/237/60 80/238/60 72/239/60 71/240/60
f 80/241/61 81/242/61 73/243/61 72/244/61
f 81/245/62 82/246/62 74/247/62 73/248/62
f 82/249/63 83/250/63 75/251/63 74/252/63
f 83/253/64 84/254/64 76/255/64 75/256/64
f 84/257/65 85/258/65 77/259/65 76/260/65
f 86/261/66 87/262/66 79/263/66 78/264/66
f 87/265/67 88/266/67 80/267/67 79/268/67
f 88/269/68 89/270/68 81/271/68 80/272/68