# Made in Blockbench 4.10.4
mtllib woodenShieldBlue.mtl

o cuboid
v -3 9.496371553181056 -0.29077882304874214
v -3 9.500734654790378 -0.040816899259644324
v -3 -0.002181550804660439 -0.12498096189454877
v -3 0.002181550804660439 0.12498096189454905
v -2 9.496371553181056 -0.29077882304874225
v -2 9.500734654790378 -0.040816899259644435
v -2 -0.002181550804660439 -0.12498096189454888
v -2 0.002181550804660439 0.12498096189454894
vt 0.3125 0.6044921875
vt 0.30859375 0.6044921875
vt 0.30859375 0.4560546875
vt 0.3125 0.4560546875
vt 0.3173828125 0.4560546875
vt 0.3173828125 0.6044921875
vt 0.3134765625 0.6044921875
vt 0.3134765625 0.4560546875
vt 0.451171875 0.546875
vt 0.466796875 0.546875
vt 0.466796875 0.55078125
vt 0.451171875 0.55078125
vt 0.357421875 0.46484375
vt 0.357421875 0.61328125
vt 0.373046875 0.61328125
vt 0.373046875 0.46484375
vt 0.3896484375 0.61328125
vt 0.3740234375 0.61328125
vt 0.3740234375 0.46484375
vt 0.3896484375 0.46484375
vn -1 3.851859888774472e-34 1.2246467991473532e-16
vn 1 -3.851859888774472e-34 -1.2246467991473532e-16
vn -2.1373033680837913e-18 0.9998476951563913 -0.01745240643728351
vn -1.2244602795081332e-16 -0.01745240643728351 -0.9998476951563913
vn 1.2244602795081332e-16 0.01745240643728351 0.9998476951563913
usemtl m_8cd9da44-5154-b4e4-3cbb-dfc743501f52
f 2/1/1 1/2/1 3/3/1 4/4/1
f 7/5/2 5/6/2 6/7/2 8/8/2
f 5/9/3 1/10/3 2/11/3 6/12/3
f 3/13/4 1/14/4 5/15/4 7/16/4
f 6/17/5 2/18/5 4/19/5 8/20/5
o cuboid
v -1 9.8125 -0.12500000000000014
v -1 9.8125 0.12499999999999986
v -1 0 -0.12500000000000014
v -1 0 0.12499999999999986
v 0 9.8125 -0.12500000000000025
v 0 9.8125 0.12499999999999975
v 0 0 -0.12500000000000025
v 0 0 0.12499999999999975
vt 0.302734375 0.6044921875
vt 0.298828125 0.6044921875
vt 0.298828125 0.451171875
vt 0.302734375 0.451171875
vt 0.3076171875 0.451171875
vt 0.3076171875 0.6044921875
vt 0.3037109375 0.6044921875
vt 0.3037109375 0.451171875
vt 0.232421875 0.5439453125
vt 0.248046875 0.5439453125
vt 0.248046875 0.5478515625
vt 0.232421875 0.5478515625
vt 0.33984375 0.4599609375
vt 0.33984375 0.61328125
vt 0.32421875 0.61328125
vt 0.32421875 0.4599609375
vt 0.3564453125 0.61328125
vt 0.3408203125 0.61328125
vt 0.3408203125 0.4599609375
vt 0.3564453125 0.4599609375
vn -1 0 1.2246467991473532e-16
vn 1 0 -1.2246467991473532e-16
vn 0 1 0
vn -1.2246467991473532e-16 0 -1
vn 1.2246467991473532e-16 0 1
usemtl m_8cd9da44-5154-b4e4-3cbb-dfc743501f52
f 10/21/6 9/22/6 11/23/6 12/24/6
f 15/25/7 13/26/7 14/27/7 16/28/7
f 13/29/8 9/30/8 10/31/8 14/32/8
f 11/33/9 9/34/9 13/35/9 15/36/9
f 14/37/10 10/38/10 12/39/10 16/40/10
o cuboid
v -2 9.0625 -0.12500000000000003
v -2 9.0625 0.12499999999999997
v -2 0 -0.12500000000000003
v -2 0 0.12499999999999997
v -1 9.0625 -0.12500000000000014
v -1 9.0625 0.12499999999999986
v -1 0 -0.12500000000000014
v -1 0 0.12499999999999986
vt 0.322265625 0.6044921875
vt 0.318359375 0.6044921875
vt 0.318359375 0.462890625
vt 0.322265625 0.462890625
vt 0.205078125 0.4365234375
vt 0.205078125 0.578125
vt 0.201171875 0.578125
vt 0.201171875 0.4365234375
vt 0.2060546875 0.5419921875
vt 0.2216796875 0.5419921875
vt 0.2216796875 0.5458984375
vt 0.2060546875 0.5458984375
vt 0.40625 0.4716796875
vt 0.40625 0.61328125
vt 0.390625 0.61328125
vt 0.390625 0.4716796875
vt 0.015625 0.6044921875
vt 0 0.6044921875
vt 0 0.462890625
vt 0.015625 0.462890625
vn -1 0 1.2246467991473532e-16
vn 1 0 -1.2246467991473532e-16
vn 0 1 0
vn -1.2246467991473532e-16 0 -1
vn 1.2246467991473532e-16 0 1
usemtl m_8cd9da44-5154-b4e4-3cbb-dfc743501f52
f 18/41/11 17/42/11 19/43/11 20/44/11
f 23/45/12 21/46/12 22/47/12 24/48/12
f 21/49/13 17/50/13 18/51/13 22/52/13
f 19/53/14 17/54/14 21/55/14 23/56/14
f 22/57/15 18/58/15 20/59/15 24/60/15
o cuboid
v 0 9.0625 -0.12500000000000025
v 0 9.0625 0.12499999999999975
v 0 0 -0.12500000000000025
v 0 0 0.12499999999999975
v 1 9.0625 -0.12500000000000036
v 1 9.0625 0.12499999999999964
v 1 0 -0.12500000000000036
v 1 0 0.12499999999999964
vt 0.322265625 0.6044921875
vt 0.318359375 0.6044921875
vt 0.318359375 0.462890625
vt 0.322265625 0.462890625
vt 0.205078125 0.4365234375
vt 0.205078125 0.578125
vt 0.201171875 0.578125
vt 0.201171875 0.4365234375
vt 0.2060546875 0.5419921875
vt 0.2216796875 0.5419921875
vt 0.2216796875 0.5458984375
vt 0.2060546875 0.5458984375
vt 0.390625 0.4716796875
vt 0.390625 0.61328125
vt 0.40625 0.61328125
vt 0.40625 0.4716796875
vt 0.015625 0.6044921875
vt 0 0.6044921875
vt 0 0.462890625
vt 0.015625 0.462890625
vn -1 0 1.2246467991473532e-16
vn 1 0 -1.2246467991473532e-16
vn 0 1 0
vn -1.2246467991473532e-16 0 -1
vn 1.2246467991473532e-16 0 1
usemtl m_8cd9da44-5154-b4e4-3cbb-dfc743501f52
f 26/61/16 25/62/16 27/63/16 28/64/16
f 31/65/17 29/66/17 30/67/17 32/68/17
f 29/69/18 25/70/18 26/71/18 30/72/18
f 27/73/19 25/74/19 29/75/19 31/76/19
f 30/77/20 26/78/20 28/79/20 32/80/20
o cuboid
v 1 9.5 -0.12500000000000036
v 1 9.5 0.12499999999999964
v 1 0 -0.12500000000000036
v 1 0 0.12499999999999964
v 2 9.5 -0.12500000000000047
v 2 9.5 0.12499999999999953
v 2 0 -0.12500000000000047
v 2 0 0.12499999999999953
vt 0.3125 0.6044921875
vt 0.30859375 0.6044921875
vt 0.30859375 0.4560546875
vt 0.3125 0.4560546875
vt 0.3173828125 0.4560546875
vt 0.3173828125 0.6044921875
vt 0.3134765625 0.6044921875
vt 0.3134765625 0.4560546875
vt 0.451171875 0.546875
vt 0.466796875 0.546875
vt 0.466796875 0.55078125
vt 0.451171875 0.55078125
vt 0.357421875 0.46484375
vt 0.357421875 0.61328125
vt 0.373046875 0.61328125
vt 0.373046875 0.46484375
vt 0.3896484375 0.61328125
vt 0.3740234375 0.61328125
vt 0.3740234375 0.46484375
vt 0.3896484375 0.46484375
vn -1 0 1.2246467991473532e-16
vn 1 0 -1.2246467991473532e-16
vn 0 1 0
vn -1.2246467991473532e-16 0 -1
vn 1.2246467991473532e-16 0 1
usemtl m_8cd9da44-5154-b4e4-3cbb-dfc743501f52
f 34/81/21 33/82/21 35/83/21 36/84/21
f 39/85/22 37/86/22 38/87/22 40/88/22
f 37/89/23 33/90/23 34/91/23 38/92/23
f 35/93/24 33/94/24 37/95/24 39/96/24
f 38/97/25 34/98/25 36/99/25 40/100/25
o cuboid
v 2 9.063301288159456 0.033181471443332444
v 2 9.058938186550135 0.28314339523243026
v 2 0.002181550804660439 -0.12498096189454938
v 2 -0.002181550804660439 0.12498096189454844
v 3 9.063301288159456 0.03318147144333233
v 3 9.058938186550135 0.28314339523243015
v 3 0.002181550804660439 -0.12498096189454949
v 3 -0.002181550804660439 0.12498096189454833
vt 0.322265625 0.6044921875
vt 0.318359375 0.6044921875
vt 0.318359375 0.462890625
vt 0.322265625 0.462890625
vt 0.205078125 0.4365234375
vt 0.205078125 0.578125
vt 0.201171875 0.578125
vt 0.201171875 0.4365234375
vt 0.2060546875 0.5419921875
vt 0.2216796875 0.5419921875
vt 0.2216796875 0.5458984375
vt 0.2060546875 0.5458984375
vt 0.40625 0.4716796875
vt 0.40625 0.61328125
vt 0.390625 0.61328125
vt 0.390625 0.4716796875
vt 0.015625 0.6044921875
vt 0 0.6044921875
vt 0 0.462890625
vt 0.015625 0.462890625
vn -1 -3.851859888774472e-34 1.2246467991473532e-16
vn 1 3.851859888774472e-34 -1.2246467991473532e-16
vn 2.1373033680837913e-18 0.9998476951563913 0.01745240643728351
vn -1.2244602795081332e-16 0.01745240643728351 -0.9998476951563913
vn 1.2244602795081332e-16 -0.01745240643728351 0.9998476951563913
usemtl m_8cd9da44-5154-b4e4-3cbb-dfc743501f52
f 42/101/26 41/102/26 43/103/26 44/104/26
f 47/105/27 45/106/27 46/107/27 48/108/27
f 45/109/28 41/110/28 42/111/28 46/112/28
f 43/113/29 41/114/29 45/115/29 47/116/29
f 46/117/30 42/118/30 44/119/30 48/120/30
o plane
v 0.75 7.5 0.124999999999999
v 0.75 1.875 0.3125000000000002
v 2 7.5 0.12499999999999883
v 2 1.875 0.3125000000000001
vt 0.2978515625 0.5166015625
vt 0.2978515625 0.6044921875
vt 0.2783203125 0.6044921875
vt 0.2783203125 0.5166015625
vn 1.2239670062561455e-16 0.0333148302326387 0.9994449069791543
usemtl m_8cd9da44-5154-b4e4-3cbb-dfc743501f52
f 49/121/31 50/122/31 52/123/31 51/124/31
o plane
v -2 7.5 0.12499999999999933
v -2 1.875 0.3125000000000006
v -0.75 7.5 0.12499999999999922
v -0.75 1.875 0.31250000000000044
vt 0.2978515625 0.5166015625
vt 0.2978515625 0.6044921875
vt 0.2783203125 0.6044921875
vt 0.2783203125 0.5166015625
vn 1.2239670062561455e-16 0.0333148302326387 0.9994449069791543
usemtl m_8cd9da44-5154-b4e4-3cbb-dfc743501f52
f 53/125/32 54/126/32 56/127/32 55/128/32
o cuboid
v 1.8125 0.4375 -0.5000000000000004
v 1.8125 0.875 -0.1250000000000005
v 1.8125 0 -0.8750000000000004
v 1.8125 0 -0.1250000000000005
v 2.1875 0.4375 -0.5000000000000006
v 2.1875 0.875 -0.12500000000000053
v 2.1875 0 -0.8750000000000004
v 2.1875 0 -0.12500000000000053
vt 0 0.994140625
vt 0 0.98828125
vt 0 1
vt 0 0.994140625
vt 0 1
vt 0 0.98828125
vt 0.2373046875 0.569121484375
vt 0.2314453125 0.569121484375
vt 0.2314453125 0.578125
vt 0.2373046875 0.578125
vt 0.2509765625 0.56640625
vt 0.2509765625 0.578125
vt 0.2451171875 0.578125
vt 0.2451171875 0.56640625
vt 0.2314453125 0.56011806640625
vt 0.2314453125 0.569121484375
vt 0.2373046875 0.569121484375
vt 0.2373046875 0.56011806640625
vt 0.244140625 0.578125
vt 0.23828125 0.578125
vt 0.23828125 0.564453125
vt 0.244140625 0.564453125
vt 0.2177734375 0.564453125
vt 0.2060546875 0.578125
vt 0.2060546875 0.564453125
vt 0.23046875 0.578125
vt 0.21875 0.564453125
vt 0.23046875 0.564453125
vn 0 0 0
vn 0 0 0
vn -9.298211678181552e-17 0.6507913734559685 -0.7592566023652966
vn 0 -1 0
vn -9.298211678181552e-17 0.6507913734559685 -0.7592566023652966
vn 1.2246467991473532e-16 0 1
vn 1 0 -1.2246467991473532e-16
vn -1 0 1.2246467991473532e-16
usemtl m_8cd9da44-5154-b4e4-3cbb-dfc743501f52
f 57/129/33 59/130/33 58/131/33
f 61/132/34 62/133/34 63/134/34
f 61/135/35 57/136/35 58/137/35 62/138/35
f 60/139/36 59/140/36 63/141/36 64/142/36
f 59/143/37 57/144/37 61/145/37 63/146/37
f 62/147/38 58/148/38 60/149/38 64/150/38
f 59/151/39 58/152/39 60/153/39
f 62/154/40 63/155/40 64/156/40
o cuboid
v -2.1875 0.4375 -0.5
v -2.1875 0.875 -0.125
v -2.1875 0 -0.875
v -2.1875 0 -0.125
v -1.8125 0.4375 -0.5
v -1.8125 0.875 -0.12500000000000003
v -1.8125 0 -0.875
v -1.8125 0 -0.12500000000000003
vt 0 0.994140625
vt 0 0.98828125
vt 0 1
vt 0 0.994140625
vt 0 1
vt 0 0.98828125
vt 0.2314453125 0.569121484375
vt 0.2373046875 0.569121484375
vt 0.2373046875 0.578125
vt 0.2314453125 0.578125
vt 0.2509765625 0.56640625
vt 0.2509765625 0.578125
vt 0.2451171875 0.578125
vt 0.2451171875 0.56640625
vt 0.2373046875 0.56011806640625
vt 0.2373046875 0.569121484375
vt 0.2314453125 0.569121484375
vt 0.2314453125 0.56011806640625
vt 0.244140625 0.578125
vt 0.23828125 0.578125
vt 0.23828125 0.564453125
vt 0.244140625 0.564453125
vt 0.2177734375 0.564453125
vt 0.2060546875 0.578125
vt 0.2060546875 0.564453125
vt 0.23046875 0.578125
vt 0.21875 0.564453125
vt 0.23046875 0.564453125
vn 0 0 0
vn 0 0 0
vn -9.298211678181552e-17 0.6507913734559685 -0.7592566023652966
vn 0 -1 0
vn -9.298211678181552e-17 0.6507913734559685 -0.7592566023652966
vn 1.2246467991473532e-16 0 1
vn 1 0 -1.2246467991473532e-16
vn -1 0 1.2246467991473532e-16
usemtl m_8cd9da44-5154-b4e4-3cbb-dfc743501f52
f 65/157/41 67/158/41 66/159/41
f 69/160/42 70/161/42 71/162/42
f 69/163/43 65/164/43 66/165/43 70/166/43
f 68/167/44 67/168/44 71/169/44 72/170/44
f 67/171/45 65/172/45 69/173/45 71/174/45
f 70/175/46 66/176/46 68/177/46 72/178/46
f 67/179/47 66/180/47 68/181/47
f 70/182/48 71/183/48 72/184/48