# Made in Blockbench 4.10.4
mtllib jumpPad.mtl

o cylinder
v 8.673617379884035e-18 0.25 8.673617379884035e-18
v 0.23445554337723232 0.0625 0.875
v 0.17584165753292424 0.25 0.6562500000000001
v 0.6405444566227676 0.0625 0.6405444566227677
v 0.4804083424670756 0.25 0.48040834246707576
v 0.875 0.0625 0.23445554337723232
v 0.6562500000000001 0.25 0.17584165753292424
v 0.875 0.0625 -0.23445554337723237
v 0.6562500000000001 0.25 -0.1758416575329243
v 0.6405444566227677 0.0625 -0.6405444566227676
v 0.48040834246707576 0.25 -0.48040834246707576
v 0.23445554337723262 0.0625 -0.8749999999999998
v 0.1758416575329245 0.25 -0.6562499999999998
v -0.23445554337723196 0.0625 -0.875
v -0.175841657532924 0.25 -0.6562500000000001
v -0.6405444566227676 0.0625 -0.6405444566227677
v -0.48040834246707576 0.25 -0.48040834246707576
v -0.8749999999999998 0.0625 -0.2344555433772322
v -0.6562499999999998 0.25 -0.1758416575329242
v -0.875 0.0625 0.23445554337723193
v -0.6562500000000001 0.25 0.17584165753292394
v -0.6405444566227677 0.0625 0.6405444566227676
v -0.48040834246707576 0.25 0.4804083424670756
v -0.23445554337723223 0.0625 0.875
v -0.1758416575329242 0.25 0.6562500000000001
v 0.875 0 -0.23445554337723237
v 0.875 0 0.23445554337723232
v 2.0816681711721685e-17 0 2.0816681711721685e-17
v 0.6405444566227676 0 0.6405444566227677
v 0.23445554337723232 0 0.875
v -0.23445554337723223 0 0.875
v -0.6405444566227677 0 0.6405444566227676
v -0.875 0 0.23445554337723193
v -0.8749999999999998 0 -0.2344555433772322
v -0.6405444566227676 0 -0.6405444566227677
v -0.23445554337723196 0 -0.875
v 0.23445554337723262 0 -0.8749999999999998
v 0.6405444566227677 0 -0.6405444566227676
vt 0.3788859375 0.9413859375
vt 0.2773640625 1
vt 0.21875 0.78125
vt 0.7148640625 0.8303786533442808
vt 0.8227745404286347 0.8761799856854829
vt 0.7811445151003555 0.9367580828365827
vt 0.7002109375000001 0.9024067783442808
vt 0.5517734375 0.296875
vt 0.6279140624999999 0.3408359375000001
vt 0.5078125 0.4609375
vt 0.4375 0.8398640625
vt 0.3788859375 0.9413859375
vt 0.21875 0.78125
vt 0.8227745404286347 0.8761799856854829
vt 0.9042132668652908 0.9605017926359458
vt 0.8422241026645418 1
vt 0.7811445151003555 0.9367580828365828
vt 0.6279140624999999 0.3408359375000001
vt 0.671875 0.4169765624999999
vt 0.5078125 0.4609375
vt 0.4375 0.7226359375
vt 0.4375 0.8398640625
vt 0.21875 0.78125
vt 0.0038859374999999988 0.34375
vt 0.12111406250000001 0.34375
vt 0.10646093749999999 0.421875
vt 0.0185390625 0.421875
vt 0.671875 0.4169765624999999
vt 0.671875 0.5048984375
vt 0.5078125 0.4609375
vt 0.3788859375 0.6211140625
vt 0.4375 0.7226359375
vt 0.21875 0.78125
vt 0.4551617331347092 0.7886267926359458
vt 0.5366004595713653 0.7043049856854829
vt 0.5782304848996445 0.7648830828365827
vt 0.5171508973354582 0.828125
vt 0.671875 0.5048984375
vt 0.6279140624999999 0.5810390624999999
vt 0.5078125 0.4609375
vt 0.2773640625 0.5625
vt 0.3788859375 0.6211140625
vt 0.21875 0.78125
vt 0.5366004595713653 0.7043049856854829
vt 0.6445109375 0.6585036533442808
vt 0.6591640625 0.7305317783442808
vt 0.5782304848996445 0.7648830828365827
vt 0.6279140624999999 0.5810390624999999
vt 0.5517734375000001 0.625
vt 0.5078125 0.4609375
vt 0.1601359375 0.5625
vt 0.2773640625 0.5625
vt 0.21875 0.78125
vt 0.6445109375 0.6585036533442808
vt 0.7617390625 0.6585036533442808
vt 0.7470859375000001 0.7305317783442808
vt 0.6591640625 0.7305317783442808
vt 0.5517734375000001 0.625
vt 0.46385156250000004 0.625
vt 0.5078125 0.4609375
vt 0.05861406250000001 0.6211140625
vt 0.1601359375 0.5625
vt 0.21875 0.78125
vt 0.7617390625 0.6585036533442808
vt 0.8696495404286347 0.7043049856854829
vt 0.8280195151003555 0.7648830828365827
vt 0.7470859375000001 0.7305317783442808
vt 0.4638515625 0.625
vt 0.3877109375 0.5810390624999999
vt 0.5078125 0.4609375
vt 0 0.7226359375
vt 0.05861406250000001 0.6211140625
vt 0.21875 0.78125
vt 0.8696495404286347 0.7043049856854829
vt 0.9510882668652908 0.7886267926359458
vt 0.8890991026645418 0.828125
vt 0.8280195151003555 0.7648830828365827
vt 0.3877109375 0.5810390624999999
vt 0.34375 0.5048984375
vt 0.5078125 0.4609375
vt 0 0.8398640625
vt 0 0.7226359375
vt 0.21875 0.78125
vt 0.1445109375 0.34375
vt 0.2617390625 0.34375
vt 0.2470859375 0.421875
vt 0.1591640625 0.421875
vt 0.34375 0.5048984375
vt 0.34375 0.4169765624999999
vt 0.5078125 0.4609375
vt 0.05861406250000001 0.9413859375
vt 0 0.8398640625
vt 0.21875 0.78125
vt 0.4082867331347092 0.9605017926359458
vt 0.48972545957136526 0.8761799856854829
vt 0.5313554848996445 0.9367580828365828
vt 0.47027589733545816 1
vt 0.34375 0.4169765624999999
vt 0.3877109375 0.3408359375000001
vt 0.5078125 0.4609375
vt 0.1601359375 1
vt 0.05861406250000001 0.9413859375
vt 0.21875 0.78125
vt 0.48972545957136526 0.8761799856854829
vt 0.5976359375 0.8303786533442808
vt 0.6122890625 0.9024067783442808
vt 0.5313554848996445 0.9367580828365827
vt 0.3877109375 0.3408359375000001
vt 0.46385156250000004 0.296875
vt 0.5078125 0.4609375
vt 0.2773640625 1
vt 0.1601359375 1
vt 0.21875 0.78125
vt 0.5976359375 0.8303786533442808
vt 0.7148640625 0.8303786533442808
vt 0.7002109375000001 0.9024067783442808
vt 0.6122890625 0.9024067783442808
vt 0.46385156250000004 0.296875
vt 0.5517734375 0.296875
vt 0.5078125 0.4609375
vt 0.15625000000000022 0.875
vt 0.27347812500000024 0.875
vt 0.27347812500000024 0.890625
vt 0.15625000000000022 0.890625
vt 0.14062500000000022 0.9375
vt 0.25785312500000024 0.9375
vt 0.25785312500000024 0.953125
vt 0.14062500000000022 0.953125
vt 0.15625000000000022 0.90625
vt 0.27347812500000024 0.90625
vt 0.27347812500000024 0.921875
vt 0.15625000000000022 0.921875
vt 0.14062500000000022 0.890625
vt 0.25785312500000024 0.890625
vt 0.25785312500000024 0.90625
vt 0.14062500000000022 0.90625
vt 0.09375000000000022 0.921875
vt 0.21097812500000024 0.921875
vt 0.21097812500000024 0.9375
vt 0.09375000000000022 0.9375
vt 0.078125 0.9375
vt 0.19535312500000002 0.9375
vt 0.19535312500000002 0.953125
vt 0.078125 0.953125
vt 0.03125 0.875
vt 0.14847812500000002 0.875
vt 0.14847812500000002 0.890625
vt 0.03125 0.890625
vt 0 0.828125
vt 0.11722812500000002 0.828125
vt 0.11722812500000002 0.84375
vt 0 0.84375
vt 2.2898349882893854e-16 0.78125
vt 0.11722812500000024 0.78125
vt 0.11722812500000024 0.796875
vt 2.2898349882893854e-16 0.796875
vt 0.04687500000000023 0.765625
vt 0.16410312500000024 0.765625
vt 0.16410312500000024 0.78125
vt 0.04687500000000023 0.78125
vt 0.14062500000000022 0.828125
vt 0.25785312500000024 0.828125
vt 0.25785312500000024 0.84375
vt 0.14062500000000022 0.84375
vt 0.10937500000000022 0.78125
vt 0.22660312500000024 0.78125
vt 0.22660312500000024 0.796875
vt 0.10937500000000022 0.796875
vn 0 -1 0
vn 0.3253956867279841 0.7592566023652967 0.5636018619766345
vn 0 1 0
vn 0 -1 0
vn 0.5636018619766348 0.7592566023652965 0.3253956867279843
vn 0 1 0
vn 0 -1 0
vn 0.6507913734559687 0.7592566023652965 0
vn 0 1 0
vn 0 -1 0
vn 0.5636018619766346 0.7592566023652966 -0.32539568672798425
vn 0 1 0
vn 0 -1 0
vn 0.32539568672798413 0.7592566023652968 -0.5636018619766345
vn 0 1 0
vn 0 -1 0
vn 3.0817081849744356e-16 0.7592566023652966 -0.6507913734559688
vn 0 1 0
vn 0 -1 0
vn -0.32539568672798397 0.7592566023652966 -0.5636018619766348
vn 0 1 0
vn 0 -1 0
vn -0.5636018619766348 0.7592566023652967 -0.32539568672798397
vn 0 1 0
vn 0 -1 0
vn -0.6507913734559688 0.7592566023652965 -3.081708184974438e-16
vn 0 1 0
vn 0 -1 0
vn -0.5636018619766346 0.7592566023652967 0.3253956867279839
vn 0 1 0
vn 0 -1 0
vn -0.3253956867279843 0.7592566023652966 0.5636018619766349
vn 0 1 0
vn 0 -1 0
vn 0 0.7592566023652965 0.6507913734559687
vn 0 1 0
vn 1 0 0
vn 0.8660254037844387 0 0.49999999999999994
vn 0.49999999999999983 0 0.8660254037844387
vn 0 0 1
vn -0.4999999999999999 0 0.8660254037844388
vn -0.8660254037844389 0 0.4999999999999995
vn -1 0 -4.735324269295866e-16
vn -0.8660254037844392 0 -0.4999999999999995
vn -0.4999999999999995 0 -0.8660254037844389
vn 4.735324269295861e-16 0 -1
vn 0.8660254037844387 0 -0.49999999999999994
vn 0.49999999999999983 0 -0.8660254037844387
usemtl m_1d8aa1f6-073c-a727-4c78-881e13bca475
f 29/1/1 30/2/1 28/3/1
f 2/4/2 4/5/2 5/6/2 3/7/2
f 3/8/3 5/9/3 1/10/3
f 27/11/4 29/12/4 28/13/4
f 4/14/5 6/15/5 7/16/5 5/17/5
f 5/18/6 7/19/6 1/20/6
f 26/21/7 27/22/7 28/23/7
f 6/24/8 8/25/8 9/26/8 7/27/8
f 7/28/9 9/29/9 1/30/9
f 38/31/10 26/32/10 28/33/10
f 8/34/11 10/35/11 11/36/11 9/37/11
f 9/38/12 11/39/12 1/40/12
f 37/41/13 38/42/13 28/43/13
f 10/44/14 12/45/14 13/46/14 11/47/14
f 11/48/15 13/49/15 1/50/15
f 36/51/16 37/52/16 28/53/16
f 12/54/17 14/55/17 15/56/17 13/57/17
f 13/58/18 15/59/18 1/60/18
f 35/61/19 36/62/19 28/63/19
f 14/64/20 16/65/20 17/66/20 15/67/20
f 15/68/21 17/69/21 1/70/21
f 34/71/22 35/72/22 28/73/22
f 16/74/23 18/75/23 19/76/23 17/77/23
f 17/78/24 19/79/24 1/80/24
f 33/81/25 34/82/25 28/83/25
f 18/84/26 20/85/26 21/86/26 19/87/26
f 19/88/27 21/89/27 1/90/27
f 32/91/28 33/92/28 28/93/28
f 20/94/29 22/95/29 23/96/29 21/97/29
f 21/98/30 23/99/30 1/100/30
f 31/101/31 32/102/31 28/103/31
f 22/104/32 24/105/32 25/106/32 23/107/32
f 23/108/33 25/109/33 1/110/33
f 30/111/34 31/112/34 28/113/34
f 24/114/35 2/115/35 3/116/35 25/117/35
f 25/118/36 3/119/36 1/120/36
f 27/121/37 26/122/37 8/123/37 6/124/37
f 29/125/38 27/126/38 6/127/38 4/128/38
f 30/129/39 29/130/39 4/131/39 2/132/39
f 31/133/40 30/134/40 2/135/40 24/136/40
f 32/137/41 31/138/41 24/139/41 22/140/41
f 33/141/42 32/142/42 22/143/42 20/144/42
f 34/145/43 33/146/43 20/147/43 18/148/43
f 35/149/44 34/150/44 18/151/44 16/152/44
f 36/153/45 35/154/45 16/155/45 14/156/45
f 37/157/46 36/158/46 14/159/46 12/160/46
f 26/161/47 38/162/47 10/163/47 8/164/47
f 38/165/48 37/166/48 12/167/48 10/168/48
o cuboid
v 0.9526650429449552 0.0625 -0.6616116523516815
v 0.5991116523516816 0.0625 -1.0151650429449555
v 0.9526650429449552 0 -0.6616116523516815
v 0.5991116523516816 0 -1.0151650429449555
v 0.6433058261758408 0.125 -0.3522524355825671
v 0.289752435582567 0.125 -0.7058058261758409
v 0.6433058261758408 0 -0.3522524355825671
v 0.289752435582567 0 -0.7058058261758409
vt 0.71875 0.953125
vt 0.59375 0.953125
vt 0.59375 0.9375
vt 0.71875 0.9375
vt 0.65625 0.96875
vt 0.65625 1
vt 0.53125 1
vt 0.53125 0.96875
vt 0.125 0.546875
vt 0.125 0.4375
vt 0.25 0.4375
vt 0.25 0.546875
vt 0.109375 0.4375
vt 0.109375 0.5625
vt 0 0.5625
vt 0 0.4375
vt 0.546875 0.640625
vt 0.546875 0.65625
vt 0.4375 0.671875
vt 0.4375 0.640625
vt 0.703125 0.8125
vt 0.59375 0.796875
vt 0.59375 0.78125
vt 0.703125 0.78125
vn 0.7071067811865477 0 -0.7071067811865474
vn -0.7071067811865477 0 0.7071067811865474
vn 0.10000000000000005 0.9899494936611667 -0.1
vn 0 -1 0
vn 0.7071067811865474 0 0.7071067811865477
vn -0.7071067811865474 0 -0.7071067811865477
usemtl m_1d8aa1f6-073c-a727-4c78-881e13bca475
f 40/169/49 39/170/49 41/171/49 42/172/49
f 45/173/50 43/174/50 44/175/50 46/176/50
f 43/177/51 39/178/51 40/179/51 44/180/51
f 42/181/52 41/182/52 45/183/52 46/184/52
f 41/185/53 39/186/53 43/187/53 45/188/53
f 44/189/54 40/190/54 42/191/54 46/192/54
o cuboid
v 0.5895992275976069 0.0625 1.0117734693001206
v 0.958237896002669 0.0625 0.6739783654922905
v 0.5895992275976069 0 1.0117734693001206
v 0.958237896002669 0 0.6739783654922905
v 0.2940285117657556 0.125 0.6892146344456913
v 0.6626671801708176 0.125 0.3514195306378612
v 0.2940285117657556 0 0.6892146344456913
v 0.6626671801708176 0 0.3514195306378612
vt 0.71875 0.953125
vt 0.59375 0.953125
vt 0.59375 0.9375
vt 0.71875 0.9375
vt 0.65625 0.96875
vt 0.65625 1
vt 0.53125 1
vt 0.53125 0.96875
vt 0.125 0.546875
vt 0.125 0.4375
vt 0.25 0.4375
vt 0.25 0.546875
vt 0.109375 0.4375
vt 0.109375 0.5625
vt 0 0.5625
vt 0 0.4375
vt 0.546875 0.640625
vt 0.546875 0.65625
vt 0.4375 0.671875
vt 0.4375 0.640625
vt 0.703125 0.8125
vt 0.59375 0.796875
vt 0.59375 0.78125
vt 0.703125 0.78125
vn 0.6755902076156601 0 0.7372773368101241
vn -0.6755902076156601 0 -0.7372773368101241
vn 0.09554288342165218 0.9899494936611667 0.10426676089471941
vn 0 -1 0
vn -0.7372773368101241 0 0.6755902076156601
vn 0.7372773368101241 0 -0.6755902076156601
usemtl m_1d8aa1f6-073c-a727-4c78-881e13bca475
f 48/193/55 47/194/55 49/195/55 50/196/55
f 53/197/56 51/198/56 52/199/56 54/200/56
f 51/201/57 47/202/57 48/203/57 52/204/57
f 50/205/58 49/206/58 53/207/58 54/208/58
f 49/209/59 47/210/59 51/211/59 53/212/59
f 52/213/60 48/214/60 50/215/60 54/216/60
o cuboid
v -0.9526650429449554 0.0625 0.6616116523516815
v -0.5991116523516816 0.0625 1.0151650429449555
v -0.9526650429449554 0 0.6616116523516815
v -0.5991116523516816 0 1.0151650429449555
v -0.6433058261758406 0.125 0.352252435582567
v -0.289752435582567 0.125 0.705805826175841
v -0.6433058261758406 0 0.352252435582567
v -0.289752435582567 0 0.705805826175841
vt 0.71875 0.953125
vt 0.59375 0.953125
vt 0.59375 0.9375
vt 0.71875 0.9375
vt 0.65625 0.96875
vt 0.65625 1
vt 0.53125 1
vt 0.53125 0.96875
vt 0.125 0.546875
vt 0.125 0.4375
vt 0.25 0.4375
vt 0.25 0.546875
vt 0.109375 0.4375
vt 0.109375 0.5625
vt 0 0.5625
vt 0 0.4375
vt 0.546875 0.640625
vt 0.546875 0.65625
vt 0.4375 0.671875
vt 0.4375 0.640625
vt 0.703125 0.8125
vt 0.59375 0.796875
vt 0.59375 0.78125
vt 0.703125 0.78125
vn -0.7071067811865478 0 0.7071067811865474
vn 0.7071067811865478 0 -0.7071067811865474
vn -0.10000000000000006 0.9899494936611667 0.1
vn 0 -1 0
vn -0.7071067811865474 0 -0.7071067811865478
vn 0.7071067811865474 0 0.7071067811865478
usemtl m_1d8aa1f6-073c-a727-4c78-881e13bca475
f 56/217/61 55/218/61 57/219/61 58/220/61
f 61/221/62 59/222/62 60/223/62 62/224/62
f 59/225/63 55/226/63 56/227/63 60/228/63
f 58/229/64 57/230/64 61/231/64 62/232/64
f 57/233/65 55/234/65 59/235/65 61/236/65
f 60/237/66 56/238/66 58/239/66 62/240/66
o cuboid
v -0.5895992275976067 0.0625 -1.0117734693001206
v -0.9582378960026688 0.0625 -0.6739783654922905
v -0.5895992275976067 0 -1.0117734693001206
v -0.9582378960026688 0 -0.6739783654922905
v -0.29402851176575545 0.125 -0.6892146344456913
v -0.6626671801708175 0.125 -0.3514195306378612
v -0.29402851176575545 0 -0.6892146344456913
v -0.6626671801708175 0 -0.3514195306378612
vt 0.71875 0.953125
vt 0.59375 0.953125
vt 0.59375 0.9375
vt 0.71875 0.9375
vt 0.65625 0.96875
vt 0.65625 1
vt 0.53125 1
vt 0.53125 0.96875
vt 0.125 0.546875
vt 0.125 0.4375
vt 0.25 0.4375
vt 0.25 0.546875
vt 0.109375 0.4375
vt 0.109375 0.5625
vt 0 0.5625
vt 0 0.4375
vt 0.546875 0.640625
vt 0.546875 0.65625
vt 0.4375 0.671875
vt 0.4375 0.640625
vt 0.703125 0.8125
vt 0.59375 0.796875
vt 0.59375 0.78125
vt 0.703125 0.78125
vn -0.6755902076156601 0 -0.7372773368101242
vn 0.6755902076156601 0 0.7372773368101242
vn -0.09554288342165218 0.9899494936611667 -0.10426676089471942
vn 0 -1 0
vn 0.7372773368101242 0 -0.6755902076156601
vn -0.7372773368101242 0 0.6755902076156601
usemtl m_1d8aa1f6-073c-a727-4c78-881e13bca475
f 64/241/67 63/242/67 65/243/67 66/244/67
f 69/245/68 67/246/68 68/247/68 70/248/68
f 67/249/69 63/250/69 64/251/69 68/252/69
f 66/253/70 65/254/70 69/255/70 70/256/70
f 65/257/71 63/258/71 67/259/71 69/260/71
f 68/261/72 64/262/72 66/263/72 70/264/72