# Made in Blockbench 4.10.4
mtllib plank.mtl

o cuboid
v 2.5 0.0625 0.53125
v 2.5 0.0625 -0.53125
v 2.5 0 0.53125
v 2.5 0 -0.53125
v -2.5 0.0625 0.53125
v -2.5 0.0625 -0.53125
v -2.5 0 0.53125
v -2.5 0 -0.53125
vt 0.1328125 0.6875
vt 0 0.6875
vt 0 0.6796875
vt 0.1328125 0.6796875
vt 0.2734375 0.6796875
vt 0.2734375 0.6875
vt 0.140625 0.6875
vt 0.140625 0.6796875
vt 0 0.8671875
vt 0.625 0.8671875
vt 0.625 1
vt 0 1
vt 0.625 0.7265625
vt 0.625 0.859375
vt 0 0.859375
vt 0 0.7265625
vt 0.625 0.7109375
vt 0.625 0.71875
vt 0 0.71875
vt 0 0.7109375
vt 0.625 0.703125
vt 0 0.703125
vt 0 0.6953125
vt 0.625 0.6953125
vn 1 0 0
vn -1 0 0
vn 0 1 0
vn 0 -1 0
vn 0 0 1
vn 0 0 -1
usemtl m_33c255d8-fe7f-f5a0-485d-e935dc1e229c
f 2/1/1 1/2/1 3/3/1 4/4/1
f 7/5/2 5/6/2 6/7/2 8/8/2
f 5/9/3 1/10/3 2/11/3 6/12/3
f 4/13/4 3/14/4 7/15/4 8/16/4
f 3/17/5 1/18/5 5/19/5 7/20/5
f 6/21/6 2/22/6 4/23/6 8/24/6