# Made in Blockbench 4.10.4
mtllib sewerPlate.mtl

o cylinder
v 0.5413423671547744 -1.375 2.40625
v 0.5413423671547744 1.875 2.40625
v 1.51680760652088 -1.375 1.929662676780392
v 1.51680760652088 1.875 1.929662676780392
v 2.191850496991016 -1.375 1.0708819946647632
v 2.191850496991016 1.875 1.0708819946647632
v 2.432770515249821 -1.375 1.51129448835533e-16
v 2.432770515249821 1.875 1.51129448835533e-16
v 2.191850496991016 -1.375 -1.070881994664763
v 2.191850496991016 1.875 -1.070881994664763
v 1.5168076065208802 -1.375 -1.929662676780392
v 1.5168076065208802 1.875 -1.929662676780392
v 0.5413423671547746 -1.375 -2.40625
v 0.5413423671547746 1.875 -2.40625
v -0.541342367154774 -1.375 -2.40625
v -0.541342367154774 1.875 -2.40625
v -1.5168076065208784 -1.375 -1.9296626767803928
v -1.5168076065208784 1.875 -1.9296626767803928
v -2.1918504969910155 -1.375 -1.0708819946647634
v -2.1918504969910155 1.875 -1.0708819946647634
v -2.432770515249821 -1.375 -4.53388346506599e-16
v -2.432770515249821 1.875 -4.53388346506599e-16
v -2.1918504969910164 -1.375 1.0708819946647627
v -2.1918504969910164 1.875 1.0708819946647627
v -1.5168076065208802 -1.375 1.929662676780392
v -1.5168076065208802 1.875 1.929662676780392
v -0.5413423671547749 -1.375 2.40625
v -0.5413423671547749 1.875 2.40625
v -0.4060067753660805 -1.375 -1.8046874999999998
v 0.40600677536608093 -1.375 -1.8046874999999998
v 1.13760570489066 -1.375 -1.4472470075852941
v 1.643887872743262 -1.375 -0.8031614959985722
v 1.8245778864373658 -1.375 1.1334708662664976e-16
v 1.643887872743262 -1.375 0.8031614959985725
v 1.13760570489066 -1.375 1.4472470075852941
v 0.4060067753660807 -1.375 1.8046874999999998
v -0.4060067753660812 -1.375 1.8046874999999998
v -1.13760570489066 -1.375 1.4472470075852941
v -1.6438878727432622 -1.375 0.8031614959985721
v -1.8245778864373658 -1.375 -3.4004125987994924e-16
v -1.643887872743262 -1.375 -0.8031614959985726
v -1.137605704890659 -1.375 -1.4472470075852948
v -0.4060067753660805 0.4666666666666667 -1.8046874999999998
v 0.40600677536608093 0.4666666666666667 -1.8046874999999998
v 1.13760570489066 0.4666666666666667 -1.4472470075852941
v 1.643887872743262 0.4666666666666667 -0.8031614959985722
v 1.8245778864373658 0.4666666666666667 1.1334708662664976e-16
v 1.643887872743262 0.4666666666666667 0.8031614959985725
v 1.13760570489066 0.4666666666666667 1.4472470075852941
v 0.4060067753660807 0.4666666666666667 1.8046874999999998
v -0.4060067753660812 0.4666666666666667 1.8046874999999998
v -1.13760570489066 0.4666666666666667 1.4472470075852941
v -1.6438878727432622 0.4666666666666667 0.8031614959985721
v -1.8245778864373658 0.4666666666666667 -3.4004125987994924e-16
v -1.643887872743262 0.4666666666666667 -0.8031614959985726
v -1.137605704890659 0.4666666666666667 -1.4472470075852948
vt 0.840474609375 0.58984375
vt 0.908328515625 0.58984375
vt 0.908328515625 0.79296875
vt 0.840474609375 0.79296875
vt 0 0.0859375
vt 0.06640625 0.0859375
vt 0.06640625 0.2890625
vt 0 0.2890625
vt 0.5859375 0.2265625
vt 0.654540625 0.2265625
vt 0.654540625 0.4296875
vt 0.5859375 0.4296875
vt 0.654540625 0.2265625
vt 0.72314375 0.2265625
vt 0.72314375 0.4296875
vt 0.654540625 0.4296875
vt 0.72314375 0.2265625
vt 0.791414453125 0.2265625
vt 0.791414453125 0.4296875
vt 0.72314375 0.4296875
vt 0.704952734375 0.796875
vt 0.772806640625 0.796875
vt 0.772806640625 1
vt 0.704952734375 1
vt 0.772806640625 0.796875
vt 0.840474609375 0.796875
vt 0.840474609375 1
vt 0.772806640625 1
vt 0.840474609375 0.796875
vt 0.908328515625 0.796875
vt 0.908328515625 1
vt 0.840474609375 1
vt 0.1875 0.4921875
vt 0.25390625 0.4921875
vt 0.25390625 0.6953125
vt 0.1875 0.6953125
vt 0.375 0.2265625
vt 0.443603125 0.2265625
vt 0.443603125 0.4296875
vt 0.375 0.4296875
vt 0.443603125 0.2265625
vt 0.51220625 0.2265625
vt 0.51220625 0.4296875
vt 0.443603125 0.4296875
vt 0.51220625 0.2265625
vt 0.580476953125 0.2265625
vt 0.580476953125 0.4296875
vt 0.51220625 0.4296875
vt 0.704952734375 0.58984375
vt 0.772806640625 0.58984375
vt 0.772806640625 0.79296875
vt 0.704952734375 0.79296875
vt 0.772806640625 0.58984375
vt 0.840474609375 0.58984375
vt 0.840474609375 0.79296875
vt 0.772806640625 0.79296875
vt 0.177719140625 0.73681640625
vt 0.126968359375 0.73681640625
vt 0.118509765625 0.69921875
vt 0.18617773437500001 0.69921875
vt 0.223444140625 0.75915625
vt 0.177719140625 0.73681640625
vt 0.18617773437500001 0.69921875
vt 0.24714414062499998 0.72900546875
vt 0.25508671875 0.79941171875
vt 0.223444140625 0.75915625
vt 0.24714414062499998 0.72900546875
vt 0.28933437500000003 0.782679296875
vt 0.2663796875000001 0.849609375
vt 0.25508671875 0.79941171875
vt 0.28933437500000003 0.782679296875
vt 0.30439179687500006 0.849609375
vt 0.2550867187500001 0.89980703125
vt 0.2663796875000001 0.849609375
vt 0.30439179687500006 0.849609375
vt 0.2893343750000001 0.916539453125
vt 0.22344414062500007 0.9400625
vt 0.2550867187500001 0.89980703125
vt 0.2893343750000001 0.916539453125
vt 0.24714414062500006 0.97021328125
vt 0.17771914062500008 0.96240234375
vt 0.22344414062500007 0.9400625
vt 0.24714414062500006 0.97021328125
vt 0.18617773437500007 1
vt 0.08124335937499992 0.9400625
vt 0.12696835937499992 0.96240234375
vt 0.11850976562499992 1
vt 0.05754335937499992 0.97021328125
vt 0.1269683593750001 0.96240234375
vt 0.17771914062500008 0.96240234375
vt 0.18617773437500007 1
vt 0.11850976562500008 1
vt 0.04960078124999992 0.89980703125
vt 0.08124335937499992 0.9400625
vt 0.05754335937499992 0.97021328125
vt 0.015353124999999912 0.916539453125
vt 0.049600781249999976 0.79941171875
vt 0.03830781249999994 0.849609375
vt 0.00029570312499993534 0.849609375
vt 0.015353124999999967 0.782679296875
vt 0.081243359375 0.75915625
vt 0.049600781249999976 0.79941171875
vt 0.015353124999999967 0.782679296875
vt 0.05754335937500002 0.72900546875
vt 0.126968359375 0.73681640625
vt 0.081243359375 0.75915625
vt 0.05754335937500002 0.72900546875
vt 0.118509765625 0.69921875
vt 0.03830781249999994 0.849609375
vt 0.04960078124999992 0.89980703125
vt 0.015353124999999912 0.916539453125
vt 0.00029570312499993534 0.849609375
vt 0.412094140625 0.87890625
vt 0.361343359375 0.87890625
vt 0.361343359375 0.763801953125
vt 0.412094140625 0.763801953125
vt 0.462984765625 0.87890625
vt 0.412094140625 0.87890625
vt 0.412094140625 0.763801953125
vt 0.462984765625 0.763801953125
vt 0.355890234375 1
vt 0.3046875 1
vt 0.3046875 0.884895703125
vt 0.355890234375 0.884895703125
vt 0.40734257812499997 1
vt 0.355890234375 1
vt 0.355890234375 0.884895703125
vt 0.40734257812499997 0.884895703125
vt 0.458794921875 1
vt 0.40734257812499997 1
vt 0.40734257812499997 0.884895703125
vt 0.458794921875 0.884895703125
vt 0.75390625 0.5859375
vt 0.703125 0.5859375
vt 0.703125 0.47265625
vt 0.75390625 0.47265625
vt 0.05274960937499999 0.41015625
vt 0.0018589843749999974 0.41015625
vt 0.0018589843750000251 0.295051953125
vt 0.05274960937500002 0.295051953125
vt 0.15439101562500002 0.41015625
vt 0.10350039062500001 0.41015625
vt 0.10350039062500001 0.295051953125
vt 0.15439101562500002 0.295051953125
vt 0.10350039062500001 0.41015625
vt 0.052749609375 0.41015625
vt 0.052749609375 0.295051953125
vt 0.10350039062500001 0.295051953125
vt 0.125421484375 0.921875
vt 0.07421875 0.921875
vt 0.07421875 0.806770703125
vt 0.125421484375 0.806770703125
vt 0.22832617187499998 0.921875
vt 0.176873828125 0.921875
vt 0.176873828125 0.806770703125
vt 0.22832617187499998 0.806770703125
vt 0.12109375 0.2890625
vt 0.0703125 0.2890625
vt 0.0703125 0.17578125
vt 0.12109375 0.17578125
vt 0.361343359375 0.87890625
vt 0.310452734375 0.87890625
vt 0.31045273437500004 0.763801953125
vt 0.361343359375 0.763801953125
vt 0.176873828125 0.921875
vt 0.125421484375 0.921875
vt 0.125421484375 0.806770703125
vt 0.176873828125 0.806770703125
vn 0.43898204414478165 0 0.8984958346695153
vn 0.7861908414167923 0 0.6179837869008831
vn 0.975615302769837 0 0.21948754179068927
vn 0.9756153027698369 0 -0.2194875417906892
vn 0.7861908414167926 0 -0.6179837869008831
vn 0.43898204414478165 0 -0.8984958346695153
vn 0 0 -1
vn -0.4389820441447814 0 -0.8984958346695154
vn -0.7861908414167921 0 -0.6179837869008835
vn -0.9756153027698368 0 -0.21948754179068963
vn -0.975615302769837 0 0.21948754179068883
vn -0.7861908414167924 0 0.6179837869008831
vn -0.4389820441447818 0 0.8984958346695152
vn 0 0 1
vn 0 -1 0
vn 0 -1 0
vn 0 -1 0
vn 0 -1 0
vn 0 -1 0
vn 0 -1 0
vn 0 -1 0
vn 0 -1 0
vn 0 -1 0
vn 0 -1 0
vn 0 -1 0
vn 0 -1 0
vn 0 -1 0
vn 0 -1 0
vn 0 0 1
vn -0.43898204414478137 0 0.8984958346695154
vn -0.7861908414167925 0 0.617983786900883
vn -0.9756153027698369 0 0.21948754179068922
vn -0.9756153027698369 0 -0.21948754179068922
vn -0.7861908414167924 0 -0.6179837869008831
vn -0.43898204414478137 0 -0.8984958346695157
vn 0.4389820441447815 0 -0.8984958346695154
vn 0 0 -1
vn 0.7861908414167924 0 -0.6179837869008831
vn 0.9756153027698369 0 0.21948754179068924
vn 0.786190841416792 0 0.6179837869008835
vn 0.438982044144781 0 0.8984958346695157
vn 0.9756153027698371 0 -0.21948754179068894
usemtl m_ab83c86c-4fd5-a016-2839-01cd443f693d
f 1/1/1 3/2/1 4/3/1 2/4/1
f 3/5/2 5/6/2 6/7/2 4/8/2
f 5/9/3 7/10/3 8/11/3 6/12/3
f 7/13/4 9/14/4 10/15/4 8/16/4
f 9/17/5 11/18/5 12/19/5 10/20/5
f 11/21/6 13/22/6 14/23/6 12/24/6
f 13/25/7 15/26/7 16/27/7 14/28/7
f 15/29/8 17/30/8 18/31/8 16/32/8
f 17/33/9 19/34/9 20/35/9 18/36/9
f 19/37/10 21/38/10 22/39/10 20/40/10
f 21/41/11 23/42/11 24/43/11 22/44/11
f 23/45/12 25/46/12 26/47/12 24/48/12
f 25/49/13 27/50/13 28/51/13 26/52/13
f 27/53/14 1/54/14 2/55/14 28/56/14
f 30/57/15 29/58/15 15/59/15 13/60/15
f 31/61/16 30/62/16 13/63/16 11/64/16
f 32/65/17 31/66/17 11/67/17 9/68/17
f 33/69/18 32/70/18 9/71/18 7/72/18
f 34/73/19 33/74/19 7/75/19 5/76/19
f 35/77/20 34/78/20 5/79/20 3/80/20
f 36/81/21 35/82/21 3/83/21 1/84/21
f 38/85/22 37/86/22 27/87/22 25/88/22
f 37/89/23 36/90/23 1/91/23 27/92/23
f 39/93/24 38/94/24 25/95/24 23/96/24
f 41/97/25 40/98/25 21/99/25 19/100/25
f 42/101/26 41/102/26 19/103/26 17/104/26
f 29/105/27 42/106/27 17/107/27 15/108/27
f 40/109/28 39/110/28 23/111/28 21/112/28
f 44/113/29 43/114/29 29/115/29 30/116/29
f 45/117/30 44/118/30 30/119/30 31/120/30
f 46/121/31 45/122/31 31/123/31 32/124/31
f 47/125/32 46/126/32 32/127/32 33/128/32
f 48/129/33 47/130/33 33/131/33 34/132/33
f 49/133/34 48/134/34 34/135/34 35/136/34
f 50/137/35 49/138/35 35/139/35 36/140/35
f 52/141/36 51/142/36 37/143/36 38/144/36
f 51/145/37 50/146/37 36/147/37 37/148/37
f 53/149/38 52/150/38 38/151/38 39/152/38
f 55/153/39 54/154/39 40/155/39 41/156/39
f 56/157/40 55/158/40 41/159/40 42/160/40
f 43/161/41 56/162/41 42/163/41 29/164/41
f 54/165/42 53/166/42 39/167/42 40/168/42
o plane
v 2 -1.1874999999999998 -2
v 2 -1.1875000000000002 2
v -2 -1.1874999999999998 -2
v -2 -1.1875000000000002 2
vt 0.51171875 0.48828125
vt 0.51171875 0.73828125
vt 0.26171875 0.73828125
vt 0.26171875 0.48828125
vn 0 -1 -1.2246467991473532e-16
usemtl m_ab83c86c-4fd5-a016-2839-01cd443f693d
f 57/169/43 58/170/43 60/171/43 59/172/43
o cylinder
v 0.4521642622275196 -2.75 1.6875
v 0.4521642622275196 -1.25 1.6875
v 1.2353357377724803 -2.75 1.2353357377724805
v 1.2353357377724803 -1.25 1.2353357377724805
v 1.6875 -2.75 0.45216426222751954
v 1.6875 -1.25 0.45216426222751954
v 1.6875 -2.75 -0.45216426222751954
v 1.6875 -1.25 -0.45216426222751954
v 1.2353357377724807 -2.75 -1.2353357377724803
v 1.2353357377724807 -1.25 -1.2353357377724803
v 0.4521642622275201 -2.75 -1.6874999999999996
v 0.4521642622275201 -1.25 -1.6874999999999996
v -0.45216426222751877 -2.75 -1.6875
v -0.45216426222751877 -1.25 -1.6875
v -1.2353357377724803 -2.75 -1.2353357377724805
v -1.2353357377724803 -1.25 -1.2353357377724805
v -1.6874999999999996 -2.75 -0.4521642622275192
v -1.6874999999999996 -1.25 -0.4521642622275192
v -1.6875 -2.75 0.4521642622275187
v -1.6875 -1.25 0.4521642622275187
v -1.2353357377724807 -2.75 1.2353357377724803
v -1.2353357377724807 -1.25 1.2353357377724803
v -0.45216426222751926 -2.75 1.6875
v -0.45216426222751926 -1.25 1.6875
vt 0.637775390625 0.71875
vt 0.698482421875 0.71875
vt 0.698482421875 1
vt 0.637775390625 1
vt 0.0007363281249999909 0.4140625
vt 0.061443359375 0.4140625
vt 0.061443359375 0.6953125
vt 0.0007363281249999909 0.6953125
vt 0.061443359375 0.4140625
vt 0.122150390625 0.4140625
vt 0.122150390625 0.6953125
vt 0.061443359375 0.6953125
vt 0.122150390625 0.4140625
vt 0.182857421875 0.4140625
vt 0.182857421875 0.6953125
vt 0.122150390625 0.6953125
vt 0.516361328125 0.43359375
vt 0.577068359375 0.43359375
vt 0.577068359375 0.71484375
vt 0.516361328125 0.71484375
vt 0.577068359375 0.43359375
vt 0.637775390625 0.43359375
vt 0.637775390625 0.71484375
vt 0.577068359375 0.71484375
vt 0.637775390625 0.43359375
vt 0.698482421875 0.43359375
vt 0.698482421875 0.71484375
vt 0.637775390625 0.71484375
vt 0.188236328125 0.203125
vt 0.248943359375 0.203125
vt 0.248943359375 0.484375
vt 0.188236328125 0.484375
vt 0.248943359375 0.203125
vt 0.309650390625 0.203125
vt 0.309650390625 0.484375
vt 0.248943359375 0.484375
vt 0.309650390625 0.203125
vt 0.370357421875 0.203125
vt 0.370357421875 0.484375
vt 0.309650390625 0.484375
vt 0.516361328125 0.71875
vt 0.577068359375 0.71875
vt 0.577068359375 1
vt 0.516361328125 1
vt 0.577068359375 0.71875
vt 0.637775390625 0.71875
vt 0.637775390625 1
vt 0.577068359375 1
vn 0.5000000000000001 0 0.8660254037844388
vn 0.8660254037844388 0 0.5000000000000001
vn 1 0 0
vn 0.8660254037844388 0 -0.49999999999999983
vn 0.49999999999999994 0 -0.8660254037844388
vn 4.910706649640152e-16 0 -1
vn -0.49999999999999967 0 -0.8660254037844389
vn -0.8660254037844389 0 -0.4999999999999995
vn -1 0 -4.910706649640158e-16
vn -0.866025403784439 0 0.49999999999999944
vn -0.49999999999999983 0 0.8660254037844387
vn 0 0 1
usemtl m_ab83c86c-4fd5-a016-2839-01cd443f693d
f 61/173/44 63/174/44 64/175/44 62/176/44
f 63/177/45 65/178/45 66/179/45 64/180/45
f 65/181/46 67/182/46 68/183/46 66/184/46
f 67/185/47 69/186/47 70/187/47 68/188/47
f 69/189/48 71/190/48 72/191/48 70/192/48
f 71/193/49 73/194/49 74/195/49 72/196/49
f 73/197/50 75/198/50 76/199/50 74/200/50
f 75/201/51 77/202/51 78/203/51 76/204/51
f 77/205/52 79/206/52 80/207/52 78/208/52
f 79/209/53 81/210/53 82/211/53 80/212/53
f 81/213/54 83/214/54 84/215/54 82/216/54
f 83/217/55 61/218/55 62/219/55 84/220/55