# Made in Blockbench 4.10.4
mtllib brick.mtl

o cuboid
v 0.5 0.5 0.25
v 0.5 0.5 -0.25
v 0.5 0 0.25
v 0.5 0 -0.25
v -0.5 0.5 0.25
v -0.5 0.5 -0.25
v -0.5 0 0.25
v -0.5 0 -0.25
vt 0.125 0.71875
vt 0 0.71875
vt 0 0.59375
vt 0.125 0.59375
vt 0.265625 0.59375
vt 0.265625 0.71875
vt 0.140625 0.71875
vt 0.140625 0.59375
vt 0 0.875
vt 0.25 0.875
vt 0.25 1
vt 0 1
vt 0.25 0.734375
vt 0.25 0.859375
vt 0 0.859375
vt 0 0.734375
vt 0.515625 0.875
vt 0.515625 1
vt 0.265625 1
vt 0.265625 0.875
vt 0.515625 0.859375
vt 0.265625 0.859375
vt 0.265625 0.734375
vt 0.515625 0.734375
vn 1 0 0
vn -1 0 0
vn 0 1 0
vn 0 -1 0
vn 0 0 1
vn 0 0 -1
usemtl m_5b8fe992-bfa6-af44-b151-e764754b01cc
f 2/1/1 1/2/1 3/3/1 4/4/1
f 7/5/2 5/6/2 6/7/2 8/8/2
f 5/9/3 1/10/3 2/11/3 6/12/3
f 4/13/4 3/14/4 7/15/4 8/16/4
f 3/17/5 1/18/5 5/19/5 7/20/5
f 6/21/6 2/22/6 4/23/6 8/24/6