# Blender 3.4.1
# www.blender.org
mtllib deathPitPlatform.mtl
o Plane
v -6.941505 -16.468971 6.941505
v 6.941505 -16.468971 6.941505
v -6.941505 -16.468971 -6.941505
v 6.941505 -16.468971 -6.941505
vn -0.0000 1.0000 -0.0000
vt 0.000000 0.000000
vt 1.000000 0.000000
vt 0.000000 1.000000
vt 1.000000 1.000000
s 0
usemtl Material.001
f 1/1/1 2/2/1 4/4/1 3/3/1
o Cylinder.001
v 0.000000 -17.142090 -5.046647
v 0.000000 1.170500 -5.046647
v 1.487525 -17.142090 -4.822438
v 1.487525 1.170500 -4.822438
v 2.842877 -17.142090 -4.169735
v 2.842877 1.170500 -4.169735
v 3.945627 -17.142090 -3.146533
v 3.945627 1.170500 -3.146533
v 4.697791 -17.142090 -1.843747
v 4.697791 1.170500 -1.843747
v 5.032535 -17.142090 -0.377136
v 5.032535 1.170500 -0.377136
v 4.920116 -17.142090 1.122985
v 4.920116 1.170500 1.122985
v 4.370524 -17.142090 2.523323
v 4.370524 1.170500 2.523323
v 3.432592 -17.142090 3.699453
v 3.432592 1.170500 3.699453
v 2.189658 -17.142090 4.546871
v 2.189658 1.170500 4.546871
v 0.752164 -17.142090 4.990280
v 0.752164 1.170500 4.990280
v -0.752164 -17.142090 4.990280
v -0.752164 1.170500 4.990280
v -2.189658 -17.142090 4.546871
v -2.189658 1.170500 4.546871
v -3.432592 -17.142090 3.699453
v -3.432592 1.170500 3.699453
v -4.370524 -17.142090 2.523323
v -4.370524 1.170500 2.523323
v -4.920116 -17.142090 1.122985
v -4.920116 1.170500 1.122985
v -5.032535 -17.142090 -0.377136
v -5.032535 1.170500 -0.377136
v -4.697791 -17.142090 -1.843747
v -4.697791 1.170500 -1.843747
v -3.945627 -17.142090 -3.146533
v -3.945627 1.170500 -3.146533
v -2.842877 -17.142090 -4.169735
v -2.842877 1.170500 -4.169735
v -1.487525 -17.142090 -4.822438
v -1.487525 1.170500 -4.822438
v 0.000000 -17.142090 -5.740001
v 1.691895 -17.142090 -5.484989
v 1.691895 1.170500 -5.484989
v 0.000000 1.170500 -5.740001
v 3.233458 -17.142090 -4.742611
v 3.233458 1.170500 -4.742611
v 4.487713 -17.142090 -3.578832
v 4.487713 1.170500 -3.578832
v 5.343216 -17.142090 -2.097058
v 5.343216 1.170500 -2.097058
v 5.723950 -17.142090 -0.428951
v 5.723950 1.170500 -0.428951
v 5.596087 -17.142090 1.277270
v 5.596087 1.170500 1.277270
v 4.970986 -17.142090 2.870000
v 4.970986 1.170500 2.870000
v 3.904192 -17.142090 4.207718
v 3.904192 1.170500 4.207718
v 2.490493 -17.142090 5.171562
v 2.490493 1.170500 5.171562
v 0.855503 -17.142090 5.675889
v 0.855503 1.170500 5.675889
v -0.855503 -17.142090 5.675889
v -0.855503 1.170500 5.675889
v -2.490493 -17.142090 5.171562
v -2.490493 1.170500 5.171562
v -3.904192 -17.142090 4.207718
v -3.904192 1.170500 4.207718
v -4.970986 -17.142090 2.870000
v -4.970986 1.170500 2.870000
v -5.596087 -17.142090 1.277270
v -5.596087 1.170500 1.277270
v -5.723950 -17.142090 -0.428951
v -5.723950 1.170500 -0.428951
v -5.343216 -17.142090 -2.097058
v -5.343216 1.170500 -2.097058
v -4.487713 -17.142090 -3.578832
v -4.487713 1.170500 -3.578832
v -3.233458 -17.142090 -4.742611
v -3.233458 1.170500 -4.742611
v -1.691895 -17.142090 -5.484989
v -1.691895 1.170500 -5.484989
vn 0.1490 -0.0000 -0.9888
vn 0.4339 -0.0000 -0.9010
vn 0.6802 -0.0000 -0.7331
vn 0.8660 -0.0000 -0.5000
vn 0.9749 -0.0000 -0.2225
vn 0.9972 -0.0000 0.0747
vn 0.9309 -0.0000 0.3653
vn 0.7818 -0.0000 0.6235
vn 0.5633 -0.0000 0.8262
vn 0.2948 -0.0000 0.9556
vn -0.0000 -0.0000 1.0000
vn -0.2948 -0.0000 0.9556
vn -0.5633 -0.0000 0.8262
vn -0.7818 -0.0000 0.6235
vn -0.9309 -0.0000 0.3653
vn -0.9972 -0.0000 0.0747
vn -0.9749 -0.0000 -0.2225
vn -0.8660 -0.0000 -0.5000
vn -0.6802 -0.0000 -0.7331
vn 0.4339 -0.0000 0.9010
vn -0.4339 -0.0000 -0.9010
vn -0.1490 -0.0000 -0.9888
vn 0.1490 -0.0000 0.9888
vn -0.0000 1.0000 -0.0000
vn 0.6802 -0.0000 0.7331
vn 0.8660 -0.0000 0.5000
vn 0.9749 -0.0000 0.2225
vn 0.9972 -0.0000 -0.0747
vn 0.9309 -0.0000 -0.3653
vn 0.7818 -0.0000 -0.6235
vn 0.5633 -0.0000 -0.8262
vn 0.2948 -0.0000 -0.9556
vn -0.0000 -0.0000 -1.0000
vn -0.2948 -0.0000 -0.9556
vn -0.5633 -0.0000 -0.8262
vn -0.7818 -0.0000 -0.6235
vn -0.9309 -0.0000 -0.3653
vn -0.9972 -0.0000 -0.0747
vn -0.9749 -0.0000 0.2225
vn -0.8660 -0.0000 0.5000
vn -0.6802 -0.0000 0.7331
vn -0.4339 -0.0000 0.9010
vn -0.1490 -0.0000 0.9888
vt 0.750000 0.461010
vt 0.250000 0.461010
vt 0.812196 0.451635
vt 0.312196 0.451635
vt 0.868866 0.424344
vt 0.368866 0.424344
vt 0.914974 0.381562
vt 0.414974 0.381562
vt 0.946423 0.327090
vt 0.446423 0.327090
vt 0.960420 0.265769
vt 0.460420 0.265769
vt 0.955719 0.203046
vt 0.455719 0.203046
vt 0.932740 0.144495
vt 0.432740 0.144495
vt 0.893523 0.095319
vt 0.393523 0.095319
vt 0.841554 0.059887
vt 0.341554 0.059887
vt 0.781449 0.041347
vt 0.281449 0.041347
vt 0.718551 0.041347
vt 0.218551 0.041347
vt 0.658446 0.059887
vt 0.158446 0.059887
vt 0.606477 0.095319
vt 0.106477 0.095319
vt 0.567260 0.144495
vt 0.067260 0.144495
vt 0.544281 0.203046
vt 0.044281 0.203046
vt 0.539580 0.265769
vt 0.039580 0.265769
vt 0.553577 0.327090
vt 0.053577 0.327090
vt 0.585026 0.381562
vt 0.085026 0.381562
vt 0.631134 0.424344
vt 0.131134 0.424344
vt 0.687804 0.451635
vt 0.187804 0.451635
vt 1.000000 0.500000
vt 0.000000 0.500000
vt 0.952381 0.500000
vt 0.952381 1.000000
vt 0.320741 0.479337
vt 1.000000 1.000000
vt 0.000000 1.000000
vt 0.250000 0.490000
vt 0.904762 0.500000
vt 0.904762 1.000000
vt 0.385197 0.448297
vt 0.857143 0.500000
vt 0.857143 1.000000
vt 0.437640 0.399638
vt 0.809524 0.500000
vt 0.809524 1.000000
vt 0.473410 0.337682
vt 0.761905 0.500000
vt 0.761905 1.000000
vt 0.489329 0.267935
vt 0.714286 0.500000
vt 0.714286 1.000000
vt 0.483983 0.196595
vt 0.666667 0.500000
vt 0.666667 1.000000
vt 0.457846 0.130000
vt 0.619048 0.500000
vt 0.619048 1.000000
vt 0.413241 0.074068
vt 0.571429 0.500000
vt 0.571429 1.000000
vt 0.354132 0.033767
vt 0.523810 0.500000
vt 0.523810 1.000000
vt 0.285770 0.012681
vt 0.476191 0.500000
vt 0.476191 1.000000
vt 0.214230 0.012681
vt 0.428571 0.500000
vt 0.428571 1.000000
vt 0.145868 0.033767
vt 0.380952 0.500000
vt 0.380952 1.000000
vt 0.086759 0.074068
vt 0.333333 0.500000
vt 0.333333 1.000000
vt 0.042154 0.130000
vt 0.285714 0.500000
vt 0.285714 1.000000
vt 0.016017 0.196595
vt 0.238095 0.500000
vt 0.238095 1.000000
vt 0.010671 0.267935
vt 0.190476 0.500000
vt 0.190476 1.000000
vt 0.026590 0.337682
vt 0.142857 0.500000
vt 0.142857 1.000000
vt 0.062360 0.399638
vt 0.095238 0.500000
vt 0.095238 1.000000
vt 0.114803 0.448297
vt 0.047619 0.500000
vt 0.047619 1.000000
vt 0.179259 0.479337
s 0
usemtl stone
f 47/47/2 50/52/2 49/50/2 48/49/2
f 48/49/3 49/50/3 52/56/3 51/55/3
f 51/55/4 52/56/4 54/59/4 53/58/4
f 53/58/5 54/59/5 56/62/5 55/61/5
f 55/61/6 56/62/6 58/65/6 57/64/6
f 57/64/7 58/65/7 60/68/7 59/67/7
f 59/67/8 60/68/8 62/71/8 61/70/8
f 61/70/9 62/71/9 64/74/9 63/73/9
f 63/73/10 64/74/10 66/77/10 65/76/10
f 65/76/11 66/77/11 68/80/11 67/79/11
f 67/79/12 68/80/12 70/83/12 69/82/12
f 69/82/13 70/83/13 72/86/13 71/85/13
f 71/85/14 72/86/14 74/89/14 73/88/14
f 73/88/15 74/89/15 76/92/15 75/91/15
f 75/91/16 76/92/16 78/95/16 77/94/16
f 77/94/17 78/95/17 80/98/17 79/97/17
f 79/97/18 80/98/18 82/101/18 81/100/18
f 81/100/19 82/101/19 84/104/19 83/103/19
f 83/103/20 84/104/20 86/107/20 85/106/20
f 46/46/21 44/44/21 43/43/21 45/45/21
f 85/106/22 86/107/22 88/110/22 87/109/22
f 87/109/23 88/110/23 50/53/23 47/48/23
f 6/6/24 46/46/24 45/45/24 5/5/24
f 6/6/25 8/8/25 49/51/25 50/54/25
f 8/8/25 10/10/25 52/57/25 49/51/25
f 10/10/25 12/12/25 54/60/25 52/57/25
f 12/12/25 14/14/25 56/63/25 54/60/25
f 14/14/25 16/16/25 58/66/25 56/63/25
f 16/16/25 18/18/25 60/69/25 58/66/25
f 18/18/25 20/20/25 62/72/25 60/69/25
f 20/20/25 22/22/25 64/75/25 62/72/25
f 22/22/25 24/24/25 66/78/25 64/75/25
f 24/24/25 26/26/25 68/81/25 66/78/25
f 26/26/25 28/28/25 70/84/25 68/81/25
f 28/28/25 30/30/25 72/87/25 70/84/25
f 30/30/25 32/32/25 74/90/25 72/87/25
f 32/32/25 34/34/25 76/93/25 74/90/25
f 34/34/25 36/36/25 78/96/25 76/93/25
f 36/36/25 38/38/25 80/99/25 78/96/25
f 38/38/25 40/40/25 82/102/25 80/99/25
f 40/40/25 42/42/25 84/105/25 82/102/25
f 42/42/25 44/44/25 86/108/25 84/105/25
f 44/44/25 46/46/25 88/111/25 86/108/25
f 46/46/25 6/6/25 50/54/25 88/111/25
f 44/44/26 42/42/26 41/41/26 43/43/26
f 42/42/27 40/40/27 39/39/27 41/41/27
f 40/40/28 38/38/28 37/37/28 39/39/28
f 38/38/29 36/36/29 35/35/29 37/37/29
f 36/36/30 34/34/30 33/33/30 35/35/30
f 34/34/31 32/32/31 31/31/31 33/33/31
f 32/32/32 30/30/32 29/29/32 31/31/32
f 30/30/33 28/28/33 27/27/33 29/29/33
f 28/28/34 26/26/34 25/25/34 27/27/34
f 26/26/35 24/24/35 23/23/35 25/25/35
f 24/24/36 22/22/36 21/21/36 23/23/36
f 22/22/37 20/20/37 19/19/37 21/21/37
f 20/20/38 18/18/38 17/17/38 19/19/38
f 18/18/39 16/16/39 15/15/39 17/17/39
f 16/16/40 14/14/40 13/13/40 15/15/40
f 14/14/41 12/12/41 11/11/41 13/13/41
f 12/12/42 10/10/42 9/9/42 11/11/42
f 10/10/43 8/8/43 7/7/43 9/9/43
f 8/8/44 6/6/44 5/5/44 7/7/44
o Cylinder
v 0.000000 1.000000 -5.129993
v 0.764583 1.000000 -5.072695
v 1.512095 1.000000 -4.902081
v 2.225822 1.000000 -4.621962
v 2.889828 1.000000 -4.238600
v 3.489282 1.000000 -3.760549
v 4.010790 1.000000 -3.198501
v 4.442702 1.000000 -2.564998
v 4.775374 1.000000 -1.874197
v 5.001372 1.000000 -1.141531
v 5.115650 1.000000 -0.383364
v 5.115650 1.000000 0.383364
v 5.001372 1.000000 1.141531
v 4.775374 1.000000 1.874197
v 4.442702 1.000000 2.564998
v 4.010788 1.000000 3.198499
v 3.489283 1.000000 3.760550
v 2.889827 1.000000 4.238598
v 2.225822 1.000000 4.621962
v 1.512095 1.000000 4.902080
v 0.764584 1.000000 5.072697
v 0.000000 1.000000 5.129993
v -0.764583 1.000000 5.072695
v -1.512095 1.000000 4.902081
v -2.225822 1.000000 4.621962
v -2.889828 1.000000 4.238600
v -3.489282 1.000000 3.760549
v -4.010790 1.000000 3.198501
v -4.442702 1.000000 2.564998
v -4.775374 1.000000 1.874197
v -5.001372 1.000000 1.141531
v -5.115650 1.000000 0.383364
v -5.115650 1.000000 -0.383364
v -5.001372 1.000000 -1.141531
v -4.775374 1.000000 -1.874197
v -4.442702 1.000000 -2.564998
v -4.010788 1.000000 -3.198499
v -3.489283 1.000000 -3.760550
v -2.889827 1.000000 -4.238598
v -2.225822 1.000000 -4.621962
v -1.512095 1.000000 -4.902080
v -0.764584 1.000000 -5.072697
v 0.000000 -16.486553 -21.420000
v 3.192486 -16.486553 -21.180756
v 3.192486 1.000000 -21.180756
v 0.000000 1.000000 -21.420000
v 6.313656 -16.486553 -20.468369
v 6.313656 1.000000 -20.468369
v 9.293790 -16.486553 -19.298754
v 9.293790 1.000000 -19.298754
v 12.066317 -16.486553 -17.698034
v 12.066317 1.000000 -17.698034
v 14.569302 -16.486553 -15.701970
v 14.569302 1.000000 -15.701970
v 16.746830 -16.486553 -13.355153
v 16.746830 1.000000 -13.355153
v 18.550264 -16.486553 -10.710000
v 18.550264 1.000000 -10.710000
v 19.939316 -16.486553 -7.825605
v 19.939316 1.000000 -7.825605
v 20.882956 -16.486553 -4.766399
v 20.882956 1.000000 -4.766399
v 21.360106 -16.486553 -1.600719
v 21.360106 1.000000 -1.600719
v 21.360106 -16.486553 1.600719
v 21.360106 1.000000 1.600719
v 20.882956 -16.486553 4.766399
v 20.882956 1.000000 4.766399
v 19.939316 -16.486553 7.825605
v 19.939316 1.000000 7.825605
v 18.550264 -16.486553 10.710000
v 18.550264 1.000000 10.710000
v 16.746830 -16.486553 13.355153
v 16.746830 1.000000 13.355153
v 14.569302 -16.486553 15.701970
v 14.569302 1.000000 15.701970
v 12.066317 -16.486553 17.698034
v 12.066317 1.000000 17.698034
v 9.293790 -16.486553 19.298754
v 9.293790 1.000000 19.298754
v 6.313656 -16.486553 20.468369
v 6.313656 1.000000 20.468369
v 3.192486 -16.486553 21.180756
v 3.192486 1.000000 21.180756
v 0.000000 -16.486553 21.420000
v 0.000000 1.000000 21.420000
v -3.192486 -16.486553 21.180756
v -3.192486 1.000000 21.180756
v -6.313656 -16.486553 20.468369
v -6.313656 1.000000 20.468369
v -9.293790 -16.486553 19.298754
v -9.293790 1.000000 19.298754
v -12.066317 -16.486553 17.698034
v -12.066317 1.000000 17.698034
v -14.569302 -16.486553 15.701970
v -14.569302 1.000000 15.701970
v -16.746830 -16.486553 13.355153
v -16.746830 1.000000 13.355153
v -18.550264 -16.486553 10.710000
v -18.550264 1.000000 10.710000
v -19.939316 -16.486553 7.825605
v -19.939316 1.000000 7.825605
v -20.882956 -16.486553 4.766399
v -20.882956 1.000000 4.766399
v -21.360106 -16.486553 1.600719
v -21.360106 1.000000 1.600719
v -21.360106 -16.486553 -1.600719
v -21.360106 1.000000 -1.600719
v -20.882956 -16.486553 -4.766399
v -20.882956 1.000000 -4.766399
v -19.939316 -16.486553 -7.825605
v -19.939316 1.000000 -7.825605
v -18.550264 -16.486553 -10.710000
v -18.550264 1.000000 -10.710000
v -16.746830 -16.486553 -13.355153
v -16.746830 1.000000 -13.355153
v -14.569302 -16.486553 -15.701970
v -14.569302 1.000000 -15.701970
v -12.066317 -16.486553 -17.698034
v -12.066317 1.000000 -17.698034
v -9.293790 -16.486553 -19.298754
v -9.293790 1.000000 -19.298754
v -6.313656 -16.486553 -20.468369
v -6.313656 1.000000 -20.468369
v -3.192486 -16.486553 -21.180756
v -3.192486 1.000000 -21.180756
vn 0.0747 -0.0000 -0.9972
vn 0.2225 -0.0000 -0.9749
vn 0.3653 -0.0000 -0.9309
vn 0.5000 -0.0000 -0.8660
vn 0.6235 -0.0000 -0.7818
vn 0.7331 -0.0000 -0.6802
vn 0.8262 -0.0000 -0.5633
vn 0.9010 -0.0000 -0.4339
vn 0.9556 -0.0000 -0.2948
vn 0.9888 -0.0000 -0.1490
vn 1.0000 -0.0000 -0.0000
vn 0.9888 -0.0000 0.1490
vn 0.9556 -0.0000 0.2948
vn 0.9010 -0.0000 0.4339
vn 0.8262 -0.0000 0.5633
vn 0.7331 -0.0000 0.6802
vn 0.6235 -0.0000 0.7818
vn 0.5000 -0.0000 0.8660
vn 0.3653 -0.0000 0.9309
vn 0.2225 -0.0000 0.9749
vn 0.0747 -0.0000 0.9972
vn -0.0747 -0.0000 0.9972
vn -0.2225 -0.0000 0.9749
vn -0.3653 -0.0000 0.9309
vn -0.5000 -0.0000 0.8660
vn -0.6235 -0.0000 0.7818
vn -0.7331 -0.0000 0.6802
vn -0.8262 -0.0000 0.5633
vn -0.9010 -0.0000 0.4339
vn -0.9556 -0.0000 0.2948
vn -0.9888 -0.0000 0.1490
vn -1.0000 -0.0000 -0.0000
vn -0.9888 -0.0000 -0.1490
vn -0.9556 -0.0000 -0.2948
vn -0.9010 -0.0000 -0.4339
vn -0.8262 -0.0000 -0.5633
vn -0.7331 -0.0000 -0.6802
vn -0.6235 -0.0000 -0.7818
vn -0.5000 -0.0000 -0.8660
vn -0.3653 -0.0000 -0.9309
vn -0.2225 -0.0000 -0.9749
vn -0.0747 -0.0000 -0.9972
vn -0.0000 1.0000 -0.0000
vt 0.250000 0.307479
vt 0.258567 0.306837
vt 0.266942 0.304925
vt 0.274939 0.301787
vt 0.282379 0.297491
vt 0.289096 0.292135
vt 0.294939 0.285838
vt 0.299778 0.278739
vt 0.303506 0.270999
vt 0.306038 0.262790
vt 0.307318 0.254295
vt 0.307318 0.245705
vt 0.306038 0.237210
vt 0.303506 0.229001
vt 0.299778 0.221261
vt 0.294939 0.214162
vt 0.289096 0.207865
vt 0.282379 0.202509
vt 0.274939 0.198213
vt 0.266942 0.195075
vt 0.258567 0.193163
vt 0.250000 0.192521
vt 0.241433 0.193163
vt 0.233058 0.195075
vt 0.225061 0.198213
vt 0.217621 0.202509
vt 0.210904 0.207865
vt 0.205061 0.214162
vt 0.200222 0.221261
vt 0.196494 0.229001
vt 0.193962 0.237210
vt 0.192682 0.245705
vt 0.192682 0.254295
vt 0.193962 0.262790
vt 0.196494 0.270999
vt 0.200222 0.278739
vt 0.205061 0.285838
vt 0.210904 0.292135
vt 0.217621 0.297491
vt 0.225061 0.301787
vt 0.233058 0.304925
vt 0.241433 0.306837
vt 1.000000 0.500000
vt -0.000001 0.500000
vt 0.976190 0.500000
vt 0.976190 1.000000
vt 0.285770 0.487319
vt 1.000000 1.000000
vt -0.000001 1.000000
vt 0.250000 0.490000
vt 0.952381 0.500000
vt 0.952381 1.000000
vt 0.320741 0.479337
vt 0.928571 0.500000
vt 0.928571 1.000000
vt 0.354132 0.466233
vt 0.904762 0.500000
vt 0.904762 1.000000
vt 0.385197 0.448297
vt 0.880952 0.500000
vt 0.880952 1.000000
vt 0.413241 0.425932
vt 0.857143 0.500000
vt 0.857143 1.000000
vt 0.437640 0.399638
vt 0.833333 0.500000
vt 0.833333 1.000000
vt 0.457846 0.370000
vt 0.809524 0.500000
vt 0.809524 1.000000
vt 0.473410 0.337682
vt 0.785714 0.500000
vt 0.785714 1.000000
vt 0.483983 0.303405
vt 0.761904 0.500000
vt 0.761904 1.000000
vt 0.489329 0.267935
vt 0.738095 0.500000
vt 0.738095 1.000000
vt 0.489329 0.232065
vt 0.714285 0.500000
vt 0.714285 1.000000
vt 0.483983 0.196595
vt 0.690476 0.500000
vt 0.690476 1.000000
vt 0.473410 0.162318
vt 0.666666 0.500000
vt 0.666666 1.000000
vt 0.457846 0.130000
vt 0.642857 0.500000
vt 0.642857 1.000000
vt 0.437640 0.100362
vt 0.619047 0.500000
vt 0.619047 1.000000
vt 0.413241 0.074068
vt 0.595238 0.500000
vt 0.595238 1.000000
vt 0.385197 0.051703
vt 0.571428 0.500000
vt 0.571428 1.000000
vt 0.354132 0.033767
vt 0.547619 0.500000
vt 0.547619 1.000000
vt 0.320741 0.020663
vt 0.523809 0.500000
vt 0.523809 1.000000
vt 0.285770 0.012681
vt 0.499999 0.500000
vt 0.499999 1.000000
vt 0.250000 0.010000
vt 0.476190 0.500000
vt 0.476190 1.000000
vt 0.214230 0.012681
vt 0.452380 0.500000
vt 0.452380 1.000000
vt 0.179259 0.020663
vt 0.428571 0.500000
vt 0.428571 1.000000
vt 0.145868 0.033767
vt 0.404761 0.500000
vt 0.404761 1.000000
vt 0.114803 0.051703
vt 0.380952 0.500000
vt 0.380952 1.000000
vt 0.086759 0.074068
vt 0.357142 0.500000
vt 0.357142 1.000000
vt 0.062360 0.100362
vt 0.333333 0.500000
vt 0.333333 1.000000
vt 0.042154 0.130000
vt 0.309523 0.500000
vt 0.309523 1.000000
vt 0.026590 0.162318
vt 0.285714 0.500000
vt 0.285714 1.000000
vt 0.016017 0.196595
vt 0.261904 0.500000
vt 0.261904 1.000000
vt 0.010671 0.232065
vt 0.238095 0.500000
vt 0.238095 1.000000
vt 0.010671 0.267935
vt 0.214285 0.500000
vt 0.214285 1.000000
vt 0.016017 0.303405
vt 0.190476 0.500000
vt 0.190476 1.000000
vt 0.026590 0.337682
vt 0.166666 0.500000
vt 0.166666 1.000000
vt 0.042154 0.370000
vt 0.142857 0.500000
vt 0.142857 1.000000
vt 0.062360 0.399638
vt 0.119047 0.500000
vt 0.119047 1.000000
vt 0.086759 0.425932
vt 0.095238 0.500000
vt 0.095238 1.000000
vt 0.114803 0.448297
vt 0.071428 0.500000
vt 0.071428 1.000000
vt 0.145868 0.466233
vt 0.047619 0.500000
vt 0.047619 1.000000
vt 0.179259 0.479337
vt 0.023809 0.500000
vt 0.023809 1.000000
vt 0.214230 0.487319
s 0
usemtl sand
f 131/154/45 134/159/45 133/157/45 132/156/45
f 132/156/46 133/157/46 136/163/46 135/162/46
f 135/162/47 136/163/47 138/166/47 137/165/47
f 137/165/48 138/166/48 140/169/48 139/168/48
f 139/168/49 140/169/49 142/172/49 141/171/49
f 141/171/50 142/172/50 144/175/50 143/174/50
f 143/174/51 144/175/51 146/178/51 145/177/51
f 145/177/52 146/178/52 148/181/52 147/180/52
f 147/180/53 148/181/53 150/184/53 149/183/53
f 149/183/54 150/184/54 152/187/54 151/186/54
f 151/186/55 152/187/55 154/190/55 153/189/55
f 153/189/56 154/190/56 156/193/56 155/192/56
f 155/192/57 156/193/57 158/196/57 157/195/57
f 157/195/58 158/196/58 160/199/58 159/198/58
f 159/198/59 160/199/59 162/202/59 161/201/59
f 161/201/60 162/202/60 164/205/60 163/204/60
f 163/204/61 164/205/61 166/208/61 165/207/61
f 165/207/62 166/208/62 168/211/62 167/210/62
f 167/210/63 168/211/63 170/214/63 169/213/63
f 169/213/64 170/214/64 172/217/64 171/216/64
f 171/216/65 172/217/65 174/220/65 173/219/65
f 173/219/66 174/220/66 176/223/66 175/222/66
f 175/222/67 176/223/67 178/226/67 177/225/67
f 177/225/68 178/226/68 180/229/68 179/228/68
f 179/228/69 180/229/69 182/232/69 181/231/69
f 181/231/70 182/232/70 184/235/70 183/234/70
f 183/234/71 184/235/71 186/238/71 185/237/71
f 185/237/72 186/238/72 188/241/72 187/240/72
f 187/240/73 188/241/73 190/244/73 189/243/73
f 189/243/74 190/244/74 192/247/74 191/246/74
f 191/246/75 192/247/75 194/250/75 193/249/75
f 193/249/76 194/250/76 196/253/76 195/252/76
f 195/252/77 196/253/77 198/256/77 197/255/77
f 197/255/78 198/256/78 200/259/78 199/258/78
f 199/258/79 200/259/79 202/262/79 201/261/79
f 201/261/80 202/262/80 204/265/80 203/264/80
f 203/264/81 204/265/81 206/268/81 205/267/81
f 205/267/82 206/268/82 208/271/82 207/270/82
f 207/270/83 208/271/83 210/274/83 209/273/83
f 209/273/84 210/274/84 212/277/84 211/276/84
f 211/276/85 212/277/85 214/280/85 213/279/85
f 213/279/86 214/280/86 134/160/86 131/155/86
f 89/112/87 90/113/87 133/158/87 134/161/87
f 90/113/87 91/114/87 136/164/87 133/158/87
f 91/114/87 92/115/87 138/167/87 136/164/87
f 92/115/87 93/116/87 140/170/87 138/167/87
f 93/116/87 94/117/87 142/173/87 140/170/87
f 94/117/87 95/118/87 144/176/87 142/173/87
f 95/118/87 96/119/87 146/179/87 144/176/87
f 96/119/87 97/120/87 148/182/87 146/179/87
f 97/120/87 98/121/87 150/185/87 148/182/87
f 98/121/87 99/122/87 152/188/87 150/185/87
f 99/122/87 100/123/87 154/191/87 152/188/87
f 100/123/87 101/124/87 156/194/87 154/191/87
f 101/124/87 102/125/87 158/197/87 156/194/87
f 102/125/87 103/126/87 160/200/87 158/197/87
f 103/126/87 104/127/87 162/203/87 160/200/87
f 104/127/87 105/128/87 164/206/87 162/203/87
f 105/128/87 106/129/87 166/209/87 164/206/87
f 106/129/87 107/130/87 168/212/87 166/209/87
f 107/130/87 108/131/87 170/215/87 168/212/87
f 108/131/87 109/132/87 172/218/87 170/215/87
f 109/132/87 110/133/87 174/221/87 172/218/87
f 110/133/87 111/134/87 176/224/87 174/221/87
f 111/134/87 112/135/87 178/227/87 176/224/87
f 112/135/87 113/136/87 180/230/87 178/227/87
f 113/136/87 114/137/87 182/233/87 180/230/87
f 114/137/87 115/138/87 184/236/87 182/233/87
f 115/138/87 116/139/87 186/239/87 184/236/87
f 116/139/87 117/140/87 188/242/87 186/239/87
f 117/140/87 118/141/87 190/245/87 188/242/87
f 118/141/87 119/142/87 192/248/87 190/245/87
f 119/142/87 120/143/87 194/251/87 192/248/87
f 120/143/87 121/144/87 196/254/87 194/251/87
f 121/144/87 122/145/87 198/257/87 196/254/87
f 122/145/87 123/146/87 200/260/87 198/257/87
f 123/146/87 124/147/87 202/263/87 200/260/87
f 124/147/87 125/148/87 204/266/87 202/263/87
f 125/148/87 126/149/87 206/269/87 204/266/87
f 126/149/87 127/150/87 208/272/87 206/269/87
f 127/150/87 128/151/87 210/275/87 208/272/87
f 128/151/87 129/152/87 212/278/87 210/275/87
f 129/152/87 130/153/87 214/281/87 212/278/87
f 130/153/87 89/112/87 134/161/87 214/281/87
