# Made in Blockbench 4.10.4
mtllib stake.mtl

o cuboid
v 0.1875 2.125 0.1875
v 0.1875 2.125 -0.1875
v 0.1875 0 0.1875
v 0.1875 0 -0.1875
v -0.1875 2.125 0.1875
v -0.1875 2.125 -0.1875
v -0.1875 0 0.1875
v -0.1875 0 -0.1875
vt 0.421875 1
vt 0.328125 1
vt 0.328125 0.46875
vt 0.421875 0.46875
vt 0.421875 0.46875
vt 0.421875 1
vt 0.328125 1
vt 0.328125 0.46875
vt 0 0.359375
vt 0.09375 0.359375
vt 0.09375 0.453125
vt 0 0.453125
vt 0.640625 0.90625
vt 0.640625 1
vt 0.546875 1
vt 0.546875 0.90625
vt 0.421875 0.46875
vt 0.421875 1
vt 0.328125 1
vt 0.328125 0.46875
vt 0.421875 1
vt 0.328125 1
vt 0.328125 0.46875
vt 0.421875 0.46875
vn 1 0 0
vn -1 0 0
vn 0 1 0
vn 0 -1 0
vn 0 0 1
vn 0 0 -1
usemtl m_6a70a564-3f41-a659-5162-953094b2baef
f 2/1/1 1/2/1 3/3/1 4/4/1
f 7/5/2 5/6/2 6/7/2 8/8/2
f 5/9/3 1/10/3 2/11/3 6/12/3
f 4/13/4 3/14/4 7/15/4 8/16/4
f 3/17/5 1/18/5 5/19/5 7/20/5
f 6/21/6 2/22/6 4/23/6 8/24/6
o pyramid
v 0 2.75 0
v 0.1875 2.125 0.1875
v 0.1875 2.125 -0.1875
v -0.1875 2.125 0.1875
v -0.1875 2.125 -0.1875
vt 0.203125 0.359375
vt 0.203125 0.453125
vt 0.109375 0.453125
vt 0.109375 0.359375
vt 0.4393230591335823 0.48116032861020963
vt 0.5294269408664176 0.45526915257135003
vt 0.5294269408664176 0.625
vt 0.4393230591335823 0.8561603286102096
vt 0.5294269408664176 0.83026915257135
vt 0.5294269408664176 1
vt 0.4393230591335823 0.6686603286102096
vt 0.5294269408664176 0.64276915257135
vt 0.5294269408664176 0.8125
vt 0.5018230591335823 0.35616032861020963
vt 0.5919269408664176 0.33026915257135003
vt 0.5919269408664176 0.5
vn 0 -1 0
vn 0.9578262852211514 0.28734788556634544 0
vn 0 0.28734788556634544 0.9578262852211514
vn 0 0.28734788556634544 -0.9578262852211514
vn -0.9578262852211514 0.28734788556634544 0
usemtl m_6a70a564-3f41-a659-5162-953094b2baef
f 11/25/7 10/26/7 12/27/7 13/28/7
f 10/29/8 11/30/8 9/31/8
f 12/32/9 10/33/9 9/34/9
f 11/35/10 13/36/10 9/37/10
f 13/38/11 12/39/11 9/40/11